<svg xmlns="http://www.w3.org/2000/svg" xmlns:xlink="http://www.w3.org/1999/xlink" width="1000" zoomAndPan="magnify" viewBox="0 0 750 299.999988" height="400" preserveAspectRatio="xMidYMid meet" version="1.0"><defs><g/></defs><rect x="-75" width="900" fill="#ffffff" y="-29.999999" height="359.999986" fill-opacity="1"/><rect x="-75" width="900" fill="#a43ae7" y="-29.999999" height="359.999986" fill-opacity="1"/><path fill="#ffffff" d="M 234.421875 123.183594 L 515.566406 123.183594 C 519.085938 123.183594 522.460938 124.582031 524.949219 127.070312 C 527.441406 129.558594 528.839844 132.9375 528.839844 136.457031 L 528.839844 163 C 528.839844 166.523438 527.441406 169.898438 524.949219 172.386719 C 522.460938 174.875 519.085938 176.273438 515.566406 176.273438 L 234.421875 176.273438 C 227.09375 176.273438 221.152344 170.332031 221.152344 163 L 221.152344 136.457031 C 221.152344 129.125 227.09375 123.183594 234.421875 123.183594 Z M 234.421875 123.183594 " fill-opacity="1" fill-rule="nonzero"/><g fill="#000000" fill-opacity="1"><g transform="translate(233.595813, 160.296778)"><g><path d="M 2.109375 0 L 2.109375 -21.78125 L 10.859375 -21.78125 C 13.117188 -21.78125 14.84375 -21.253906 16.03125 -20.203125 C 17.226562 -19.160156 17.828125 -17.816406 17.828125 -16.171875 C 17.828125 -14.804688 17.457031 -13.710938 16.71875 -12.890625 C 15.976562 -12.078125 15.082031 -11.523438 14.03125 -11.234375 C 15.269531 -10.984375 16.296875 -10.363281 17.109375 -9.375 C 17.921875 -8.394531 18.328125 -7.25 18.328125 -5.9375 C 18.328125 -4.21875 17.703125 -2.796875 16.453125 -1.671875 C 15.210938 -0.554688 13.453125 0 11.171875 0 Z M 6.09375 -12.625 L 10.265625 -12.625 C 11.390625 -12.625 12.25 -12.882812 12.84375 -13.40625 C 13.445312 -13.925781 13.75 -14.660156 13.75 -15.609375 C 13.75 -16.523438 13.453125 -17.25 12.859375 -17.78125 C 12.273438 -18.3125 11.390625 -18.578125 10.203125 -18.578125 L 6.09375 -18.578125 Z M 6.09375 -3.234375 L 10.546875 -3.234375 C 11.722656 -3.234375 12.640625 -3.507812 13.296875 -4.0625 C 13.953125 -4.613281 14.28125 -5.382812 14.28125 -6.375 C 14.28125 -7.394531 13.9375 -8.191406 13.25 -8.765625 C 12.5625 -9.347656 11.640625 -9.640625 10.484375 -9.640625 L 6.09375 -9.640625 Z M 6.09375 -3.234375 "/></g></g></g><g fill="#000000" fill-opacity="1"><g transform="translate(253.226536, 160.296778)"><g><path d="M 9.515625 0.375 C 7.960938 0.375 6.582031 0.0390625 5.375 -0.625 C 4.175781 -1.289062 3.234375 -2.222656 2.546875 -3.421875 C 1.867188 -4.617188 1.53125 -6.007812 1.53125 -7.59375 C 1.53125 -9.1875 1.863281 -10.601562 2.53125 -11.84375 C 3.207031 -13.09375 4.140625 -14.0625 5.328125 -14.75 C 6.523438 -15.445312 7.929688 -15.796875 9.546875 -15.796875 C 11.066406 -15.796875 12.40625 -15.460938 13.5625 -14.796875 C 14.726562 -14.140625 15.632812 -13.234375 16.28125 -12.078125 C 16.9375 -10.929688 17.265625 -9.65625 17.265625 -8.25 C 17.265625 -8.019531 17.257812 -7.78125 17.25 -7.53125 C 17.238281 -7.28125 17.222656 -7.019531 17.203125 -6.75 L 5.46875 -6.75 C 5.550781 -5.550781 5.972656 -4.609375 6.734375 -3.921875 C 7.492188 -3.234375 8.410156 -2.890625 9.484375 -2.890625 C 10.296875 -2.890625 10.972656 -3.070312 11.515625 -3.4375 C 12.066406 -3.800781 12.476562 -4.273438 12.75 -4.859375 L 16.796875 -4.859375 C 16.503906 -3.878906 16.019531 -2.988281 15.34375 -2.1875 C 14.675781 -1.394531 13.847656 -0.769531 12.859375 -0.3125 C 11.878906 0.144531 10.765625 0.375 9.515625 0.375 Z M 9.546875 -12.5625 C 8.578125 -12.5625 7.71875 -12.285156 6.96875 -11.734375 C 6.21875 -11.191406 5.738281 -10.359375 5.53125 -9.234375 L 13.21875 -9.234375 C 13.15625 -10.253906 12.78125 -11.0625 12.09375 -11.65625 C 11.414062 -12.257812 10.566406 -12.5625 9.546875 -12.5625 Z M 9.546875 -12.5625 "/></g></g></g><g fill="#000000" fill-opacity="1"><g transform="translate(271.830619, 160.296778)"><g><path d="M 3.953125 6.84375 L 7.53125 -1.03125 L 6.59375 -1.03125 L 0.59375 -15.4375 L 4.921875 -15.4375 L 9.234375 -4.578125 L 13.75 -15.4375 L 17.984375 -15.4375 L 8.1875 6.84375 Z M 3.953125 6.84375 "/></g></g></g><g fill="#000000" fill-opacity="1"><g transform="translate(290.403593, 160.296778)"><g><path d="M 9.421875 0.375 C 7.929688 0.375 6.585938 0.03125 5.390625 -0.65625 C 4.203125 -1.34375 3.257812 -2.289062 2.5625 -3.5 C 1.875 -4.707031 1.53125 -6.113281 1.53125 -7.71875 C 1.53125 -9.3125 1.878906 -10.710938 2.578125 -11.921875 C 3.285156 -13.140625 4.234375 -14.085938 5.421875 -14.765625 C 6.617188 -15.453125 7.960938 -15.796875 9.453125 -15.796875 C 10.929688 -15.796875 12.265625 -15.453125 13.453125 -14.765625 C 14.648438 -14.085938 15.59375 -13.140625 16.28125 -11.921875 C 16.976562 -10.710938 17.328125 -9.3125 17.328125 -7.71875 C 17.328125 -6.113281 16.976562 -4.707031 16.28125 -3.5 C 15.59375 -2.289062 14.644531 -1.34375 13.4375 -0.65625 C 12.238281 0.03125 10.898438 0.375 9.421875 0.375 Z M 9.421875 -3.078125 C 10.460938 -3.078125 11.363281 -3.460938 12.125 -4.234375 C 12.894531 -5.015625 13.28125 -6.175781 13.28125 -7.71875 C 13.28125 -9.25 12.894531 -10.398438 12.125 -11.171875 C 11.363281 -11.953125 10.472656 -12.34375 9.453125 -12.34375 C 8.398438 -12.34375 7.492188 -11.953125 6.734375 -11.171875 C 5.972656 -10.398438 5.59375 -9.25 5.59375 -7.71875 C 5.59375 -6.175781 5.972656 -5.015625 6.734375 -4.234375 C 7.492188 -3.460938 8.390625 -3.078125 9.421875 -3.078125 Z M 9.421875 -3.078125 "/></g></g></g><g fill="#000000" fill-opacity="1"><g transform="translate(309.256557, 160.296778)"><g><path d="M 2.015625 0 L 2.015625 -15.4375 L 5.53125 -15.4375 L 5.84375 -12.8125 C 6.320312 -13.726562 7.007812 -14.453125 7.90625 -14.984375 C 8.8125 -15.523438 9.878906 -15.796875 11.109375 -15.796875 C 13.015625 -15.796875 14.492188 -15.191406 15.546875 -13.984375 C 16.609375 -12.785156 17.140625 -11.023438 17.140625 -8.703125 L 17.140625 0 L 13.15625 0 L 13.15625 -8.34375 C 13.15625 -9.664062 12.882812 -10.675781 12.34375 -11.375 C 11.8125 -12.082031 10.972656 -12.4375 9.828125 -12.4375 C 8.710938 -12.4375 7.796875 -12.039062 7.078125 -11.25 C 6.359375 -10.46875 6 -9.375 6 -7.96875 L 6 0 Z M 2.015625 0 "/></g></g></g><g fill="#000000" fill-opacity="1"><g transform="translate(328.171747, 160.296778)"><g><path d="M 9.109375 0.375 C 7.660156 0.375 6.363281 0.0234375 5.21875 -0.671875 C 4.082031 -1.378906 3.179688 -2.34375 2.515625 -3.5625 C 1.859375 -4.789062 1.53125 -6.1875 1.53125 -7.75 C 1.53125 -9.300781 1.859375 -10.679688 2.515625 -11.890625 C 3.179688 -13.109375 4.082031 -14.0625 5.21875 -14.75 C 6.363281 -15.445312 7.660156 -15.796875 9.109375 -15.796875 C 10.273438 -15.796875 11.289062 -15.578125 12.15625 -15.140625 C 13.03125 -14.710938 13.738281 -14.101562 14.28125 -13.3125 L 14.28125 -22.40625 L 18.265625 -22.40625 L 18.265625 0 L 14.71875 0 L 14.28125 -2.203125 C 13.78125 -1.523438 13.117188 -0.925781 12.296875 -0.40625 C 11.484375 0.113281 10.421875 0.375 9.109375 0.375 Z M 9.953125 -3.109375 C 11.242188 -3.109375 12.296875 -3.535156 13.109375 -4.390625 C 13.929688 -5.253906 14.34375 -6.363281 14.34375 -7.71875 C 14.34375 -9.0625 13.929688 -10.160156 13.109375 -11.015625 C 12.296875 -11.878906 11.242188 -12.3125 9.953125 -12.3125 C 8.691406 -12.3125 7.644531 -11.882812 6.8125 -11.03125 C 5.976562 -10.1875 5.5625 -9.09375 5.5625 -7.75 C 5.5625 -6.394531 5.976562 -5.28125 6.8125 -4.40625 C 7.644531 -3.539062 8.691406 -3.109375 9.953125 -3.109375 Z M 9.953125 -3.109375 "/></g></g></g><g fill="#000000" fill-opacity="1"><g transform="translate(348.455795, 160.296778)"><g/></g></g><g fill="#000000" fill-opacity="1"><g transform="translate(355.860096, 160.296778)"><g><path d="M 7.1875 0 L 7.1875 -18.578125 L 0.84375 -18.578125 L 0.84375 -21.78125 L 17.546875 -21.78125 L 17.546875 -18.578125 L 11.171875 -18.578125 L 11.171875 0 Z M 7.1875 0 "/></g></g></g><g fill="#000000" fill-opacity="1"><g transform="translate(374.246407, 160.296778)"><g><path d="M 2.015625 0 L 2.015625 -22.40625 L 6 -22.40625 L 6 -13.0625 C 6.519531 -13.914062 7.21875 -14.582031 8.09375 -15.0625 C 8.976562 -15.550781 9.992188 -15.796875 11.140625 -15.796875 C 13.046875 -15.796875 14.519531 -15.191406 15.5625 -13.984375 C 16.613281 -12.785156 17.140625 -11.023438 17.140625 -8.703125 L 17.140625 0 L 13.1875 0 L 13.1875 -8.34375 C 13.1875 -9.664062 12.921875 -10.675781 12.390625 -11.375 C 11.867188 -12.082031 11.035156 -12.4375 9.890625 -12.4375 C 8.773438 -12.4375 7.847656 -12.039062 7.109375 -11.25 C 6.367188 -10.46875 6 -9.375 6 -7.96875 L 6 0 Z M 2.015625 0 "/></g></g></g><g fill="#000000" fill-opacity="1"><g transform="translate(393.161589, 160.296778)"><g><path d="M 9.515625 0.375 C 7.960938 0.375 6.582031 0.0390625 5.375 -0.625 C 4.175781 -1.289062 3.234375 -2.222656 2.546875 -3.421875 C 1.867188 -4.617188 1.53125 -6.007812 1.53125 -7.59375 C 1.53125 -9.1875 1.863281 -10.601562 2.53125 -11.84375 C 3.207031 -13.09375 4.140625 -14.0625 5.328125 -14.75 C 6.523438 -15.445312 7.929688 -15.796875 9.546875 -15.796875 C 11.066406 -15.796875 12.40625 -15.460938 13.5625 -14.796875 C 14.726562 -14.140625 15.632812 -13.234375 16.28125 -12.078125 C 16.9375 -10.929688 17.265625 -9.65625 17.265625 -8.25 C 17.265625 -8.019531 17.257812 -7.78125 17.25 -7.53125 C 17.238281 -7.28125 17.222656 -7.019531 17.203125 -6.75 L 5.46875 -6.75 C 5.550781 -5.550781 5.972656 -4.609375 6.734375 -3.921875 C 7.492188 -3.234375 8.410156 -2.890625 9.484375 -2.890625 C 10.296875 -2.890625 10.972656 -3.070312 11.515625 -3.4375 C 12.066406 -3.800781 12.476562 -4.273438 12.75 -4.859375 L 16.796875 -4.859375 C 16.503906 -3.878906 16.019531 -2.988281 15.34375 -2.1875 C 14.675781 -1.394531 13.847656 -0.769531 12.859375 -0.3125 C 11.878906 0.144531 10.765625 0.375 9.515625 0.375 Z M 9.546875 -12.5625 C 8.578125 -12.5625 7.71875 -12.285156 6.96875 -11.734375 C 6.21875 -11.191406 5.738281 -10.359375 5.53125 -9.234375 L 13.21875 -9.234375 C 13.15625 -10.253906 12.78125 -11.0625 12.09375 -11.65625 C 11.414062 -12.257812 10.566406 -12.5625 9.546875 -12.5625 Z M 9.546875 -12.5625 "/></g></g></g><g fill="#000000" fill-opacity="1"><g transform="translate(411.765679, 160.296778)"><g/></g></g><g fill="#000000" fill-opacity="1"><g transform="translate(419.169972, 160.296778)"><g><path d="M 2.109375 0 L 2.109375 -21.78125 L 10.859375 -21.78125 C 13.117188 -21.78125 14.84375 -21.253906 16.03125 -20.203125 C 17.226562 -19.160156 17.828125 -17.816406 17.828125 -16.171875 C 17.828125 -14.804688 17.457031 -13.710938 16.71875 -12.890625 C 15.976562 -12.078125 15.082031 -11.523438 14.03125 -11.234375 C 15.269531 -10.984375 16.296875 -10.363281 17.109375 -9.375 C 17.921875 -8.394531 18.328125 -7.25 18.328125 -5.9375 C 18.328125 -4.21875 17.703125 -2.796875 16.453125 -1.671875 C 15.210938 -0.554688 13.453125 0 11.171875 0 Z M 6.09375 -12.625 L 10.265625 -12.625 C 11.390625 -12.625 12.25 -12.882812 12.84375 -13.40625 C 13.445312 -13.925781 13.75 -14.660156 13.75 -15.609375 C 13.75 -16.523438 13.453125 -17.25 12.859375 -17.78125 C 12.273438 -18.3125 11.390625 -18.578125 10.203125 -18.578125 L 6.09375 -18.578125 Z M 6.09375 -3.234375 L 10.546875 -3.234375 C 11.722656 -3.234375 12.640625 -3.507812 13.296875 -4.0625 C 13.953125 -4.613281 14.28125 -5.382812 14.28125 -6.375 C 14.28125 -7.394531 13.9375 -8.191406 13.25 -8.765625 C 12.5625 -9.347656 11.640625 -9.640625 10.484375 -9.640625 L 6.09375 -9.640625 Z M 6.09375 -3.234375 "/></g></g></g><g fill="#000000" fill-opacity="1"><g transform="translate(438.800696, 160.296778)"><g><path d="M 7.34375 0.375 C 6.007812 0.375 4.914062 0.160156 4.0625 -0.265625 C 3.21875 -0.691406 2.585938 -1.253906 2.171875 -1.953125 C 1.765625 -2.660156 1.5625 -3.441406 1.5625 -4.296875 C 1.5625 -5.722656 2.117188 -6.878906 3.234375 -7.765625 C 4.359375 -8.660156 6.039062 -9.109375 8.28125 -9.109375 L 12.1875 -9.109375 L 12.1875 -9.484375 C 12.1875 -10.546875 11.882812 -11.320312 11.28125 -11.8125 C 10.6875 -12.3125 9.941406 -12.5625 9.046875 -12.5625 C 8.242188 -12.5625 7.539062 -12.367188 6.9375 -11.984375 C 6.332031 -11.609375 5.957031 -11.046875 5.8125 -10.296875 L 1.921875 -10.296875 C 2.023438 -11.421875 2.40625 -12.394531 3.0625 -13.21875 C 3.71875 -14.050781 4.5625 -14.6875 5.59375 -15.125 C 6.632812 -15.570312 7.796875 -15.796875 9.078125 -15.796875 C 11.273438 -15.796875 13.003906 -15.242188 14.265625 -14.140625 C 15.535156 -13.046875 16.171875 -11.492188 16.171875 -9.484375 L 16.171875 0 L 12.78125 0 L 12.40625 -2.484375 C 11.957031 -1.660156 11.320312 -0.976562 10.5 -0.4375 C 9.675781 0.101562 8.625 0.375 7.34375 0.375 Z M 8.25 -2.734375 C 9.382812 -2.734375 10.269531 -3.109375 10.90625 -3.859375 C 11.539062 -4.609375 11.9375 -5.53125 12.09375 -6.625 L 8.703125 -6.625 C 7.648438 -6.625 6.894531 -6.429688 6.4375 -6.046875 C 5.976562 -5.660156 5.75 -5.191406 5.75 -4.640625 C 5.75 -4.035156 5.976562 -3.566406 6.4375 -3.234375 C 6.894531 -2.898438 7.5 -2.734375 8.25 -2.734375 Z M 8.25 -2.734375 "/></g></g></g><g fill="#000000" fill-opacity="1"><g transform="translate(456.751463, 160.296778)"><g><path d="M 8.40625 0.375 C 7.03125 0.375 5.820312 0.148438 4.78125 -0.296875 C 3.75 -0.742188 2.921875 -1.359375 2.296875 -2.140625 C 1.679688 -2.929688 1.3125 -3.847656 1.1875 -4.890625 L 5.1875 -4.890625 C 5.3125 -4.285156 5.648438 -3.769531 6.203125 -3.34375 C 6.753906 -2.914062 7.46875 -2.703125 8.34375 -2.703125 C 9.207031 -2.703125 9.84375 -2.878906 10.25 -3.234375 C 10.65625 -3.585938 10.859375 -3.992188 10.859375 -4.453125 C 10.859375 -5.109375 10.566406 -5.554688 9.984375 -5.796875 C 9.398438 -6.035156 8.59375 -6.269531 7.5625 -6.5 C 6.894531 -6.644531 6.21875 -6.820312 5.53125 -7.03125 C 4.851562 -7.238281 4.226562 -7.503906 3.65625 -7.828125 C 3.082031 -8.148438 2.617188 -8.5625 2.265625 -9.0625 C 1.910156 -9.570312 1.734375 -10.203125 1.734375 -10.953125 C 1.734375 -12.316406 2.28125 -13.460938 3.375 -14.390625 C 4.46875 -15.328125 6 -15.796875 7.96875 -15.796875 C 9.789062 -15.796875 11.242188 -15.367188 12.328125 -14.515625 C 13.421875 -13.671875 14.070312 -12.503906 14.28125 -11.015625 L 10.515625 -11.015625 C 10.285156 -12.148438 9.425781 -12.71875 7.9375 -12.71875 C 7.1875 -12.71875 6.609375 -12.570312 6.203125 -12.28125 C 5.796875 -12 5.59375 -11.640625 5.59375 -11.203125 C 5.59375 -10.742188 5.894531 -10.378906 6.5 -10.109375 C 7.101562 -9.835938 7.898438 -9.585938 8.890625 -9.359375 C 9.972656 -9.109375 10.960938 -8.832031 11.859375 -8.53125 C 12.765625 -8.238281 13.488281 -7.796875 14.03125 -7.203125 C 14.570312 -6.609375 14.84375 -5.765625 14.84375 -4.671875 C 14.863281 -3.710938 14.613281 -2.847656 14.09375 -2.078125 C 13.570312 -1.316406 12.820312 -0.71875 11.84375 -0.28125 C 10.875 0.15625 9.726562 0.375 8.40625 0.375 Z M 8.40625 0.375 "/></g></g></g><g fill="#000000" fill-opacity="1"><g transform="translate(473.084476, 160.296778)"><g><path d="M 4.171875 -17.828125 C 3.441406 -17.828125 2.84375 -18.039062 2.375 -18.46875 C 1.914062 -18.90625 1.6875 -19.457031 1.6875 -20.125 C 1.6875 -20.789062 1.914062 -21.335938 2.375 -21.765625 C 2.84375 -22.191406 3.441406 -22.40625 4.171875 -22.40625 C 4.890625 -22.40625 5.484375 -22.191406 5.953125 -21.765625 C 6.421875 -21.335938 6.65625 -20.789062 6.65625 -20.125 C 6.65625 -19.457031 6.421875 -18.90625 5.953125 -18.46875 C 5.484375 -18.039062 4.890625 -17.828125 4.171875 -17.828125 Z M 2.171875 0 L 2.171875 -15.4375 L 6.15625 -15.4375 L 6.15625 0 Z M 2.171875 0 "/></g></g></g><g fill="#000000" fill-opacity="1"><g transform="translate(481.390981, 160.296778)"><g><path d="M 9.578125 0.375 C 8.003906 0.375 6.613281 0.03125 5.40625 -0.65625 C 4.207031 -1.34375 3.257812 -2.296875 2.5625 -3.515625 C 1.875 -4.734375 1.53125 -6.132812 1.53125 -7.71875 C 1.53125 -9.289062 1.875 -10.6875 2.5625 -11.90625 C 3.257812 -13.132812 4.207031 -14.085938 5.40625 -14.765625 C 6.613281 -15.453125 8.003906 -15.796875 9.578125 -15.796875 C 11.546875 -15.796875 13.203125 -15.28125 14.546875 -14.25 C 15.898438 -13.226562 16.765625 -11.816406 17.140625 -10.015625 L 12.9375 -10.015625 C 12.726562 -10.765625 12.316406 -11.347656 11.703125 -11.765625 C 11.097656 -12.191406 10.378906 -12.40625 9.546875 -12.40625 C 8.453125 -12.40625 7.519531 -11.988281 6.75 -11.15625 C 5.976562 -10.332031 5.59375 -9.1875 5.59375 -7.71875 C 5.59375 -6.238281 5.976562 -5.082031 6.75 -4.25 C 7.519531 -3.425781 8.453125 -3.015625 9.546875 -3.015625 C 10.378906 -3.015625 11.097656 -3.222656 11.703125 -3.640625 C 12.316406 -4.054688 12.726562 -4.644531 12.9375 -5.40625 L 17.140625 -5.40625 C 16.765625 -3.664062 15.898438 -2.265625 14.546875 -1.203125 C 13.203125 -0.148438 11.546875 0.375 9.578125 0.375 Z M 9.578125 0.375 "/></g></g></g><g fill="#000000" fill-opacity="1"><g transform="translate(500.057291, 160.296778)"><g><path d="M 8.40625 0.375 C 7.03125 0.375 5.820312 0.148438 4.78125 -0.296875 C 3.75 -0.742188 2.921875 -1.359375 2.296875 -2.140625 C 1.679688 -2.929688 1.3125 -3.847656 1.1875 -4.890625 L 5.1875 -4.890625 C 5.3125 -4.285156 5.648438 -3.769531 6.203125 -3.34375 C 6.753906 -2.914062 7.46875 -2.703125 8.34375 -2.703125 C 9.207031 -2.703125 9.84375 -2.878906 10.25 -3.234375 C 10.65625 -3.585938 10.859375 -3.992188 10.859375 -4.453125 C 10.859375 -5.109375 10.566406 -5.554688 9.984375 -5.796875 C 9.398438 -6.035156 8.59375 -6.269531 7.5625 -6.5 C 6.894531 -6.644531 6.21875 -6.820312 5.53125 -7.03125 C 4.851562 -7.238281 4.226562 -7.503906 3.65625 -7.828125 C 3.082031 -8.148438 2.617188 -8.5625 2.265625 -9.0625 C 1.910156 -9.570312 1.734375 -10.203125 1.734375 -10.953125 C 1.734375 -12.316406 2.28125 -13.460938 3.375 -14.390625 C 4.46875 -15.328125 6 -15.796875 7.96875 -15.796875 C 9.789062 -15.796875 11.242188 -15.367188 12.328125 -14.515625 C 13.421875 -13.671875 14.070312 -12.503906 14.28125 -11.015625 L 10.515625 -11.015625 C 10.285156 -12.148438 9.425781 -12.71875 7.9375 -12.71875 C 7.1875 -12.71875 6.609375 -12.570312 6.203125 -12.28125 C 5.796875 -12 5.59375 -11.640625 5.59375 -11.203125 C 5.59375 -10.742188 5.894531 -10.378906 6.5 -10.109375 C 7.101562 -9.835938 7.898438 -9.585938 8.890625 -9.359375 C 9.972656 -9.109375 10.960938 -8.832031 11.859375 -8.53125 C 12.765625 -8.238281 13.488281 -7.796875 14.03125 -7.203125 C 14.570312 -6.609375 14.84375 -5.765625 14.84375 -4.671875 C 14.863281 -3.710938 14.613281 -2.847656 14.09375 -2.078125 C 13.570312 -1.316406 12.820312 -0.71875 11.84375 -0.28125 C 10.875 0.15625 9.726562 0.375 8.40625 0.375 Z M 8.40625 0.375 "/></g></g></g></svg>