<svg xmlns="http://www.w3.org/2000/svg" xmlns:xlink="http://www.w3.org/1999/xlink" width="1000" zoomAndPan="magnify" viewBox="0 0 750 299.999988" height="400" preserveAspectRatio="xMidYMid meet" version="1.0"><defs><g/></defs><rect x="-75" width="900" fill="#ffffff" y="-29.999999" height="359.999986" fill-opacity="1"/><rect x="-75" width="900" fill="#a43ae7" y="-29.999999" height="359.999986" fill-opacity="1"/><path fill="#ffffff" d="M 167.820312 123.183594 L 582.175781 123.183594 C 585.695312 123.183594 589.074219 124.582031 591.5625 127.070312 C 594.050781 129.558594 595.449219 132.9375 595.449219 136.457031 L 595.449219 163 C 595.449219 166.523438 594.050781 169.898438 591.5625 172.386719 C 589.074219 174.875 585.695312 176.273438 582.175781 176.273438 L 167.820312 176.273438 C 160.488281 176.273438 154.546875 170.332031 154.546875 163 L 154.546875 136.457031 C 154.546875 129.125 160.488281 123.183594 167.820312 123.183594 Z M 167.820312 123.183594 " fill-opacity="1" fill-rule="nonzero"/><g fill="#000000" fill-opacity="1"><g transform="translate(166.99146, 160.296778)"><g><path d="M 11.984375 0.375 C 9.773438 0.375 7.882812 -0.09375 6.3125 -1.03125 C 4.738281 -1.976562 3.523438 -3.296875 2.671875 -4.984375 C 1.828125 -6.679688 1.40625 -8.640625 1.40625 -10.859375 C 1.40625 -13.078125 1.828125 -15.035156 2.671875 -16.734375 C 3.523438 -18.429688 4.738281 -19.757812 6.3125 -20.71875 C 7.882812 -21.675781 9.773438 -22.15625 11.984375 -22.15625 C 14.585938 -22.15625 16.722656 -21.503906 18.390625 -20.203125 C 20.066406 -18.910156 21.113281 -17.09375 21.53125 -14.75 L 17.140625 -14.75 C 16.867188 -15.925781 16.289062 -16.851562 15.40625 -17.53125 C 14.53125 -18.207031 13.367188 -18.546875 11.921875 -18.546875 C 9.898438 -18.546875 8.316406 -17.859375 7.171875 -16.484375 C 6.035156 -15.117188 5.46875 -13.242188 5.46875 -10.859375 C 5.46875 -8.472656 6.035156 -6.597656 7.171875 -5.234375 C 8.316406 -3.878906 9.898438 -3.203125 11.921875 -3.203125 C 13.367188 -3.203125 14.53125 -3.519531 15.40625 -4.15625 C 16.289062 -4.789062 16.867188 -5.664062 17.140625 -6.78125 L 21.53125 -6.78125 C 21.113281 -4.539062 20.066406 -2.785156 18.390625 -1.515625 C 16.722656 -0.253906 14.585938 0.375 11.984375 0.375 Z M 11.984375 0.375 "/></g></g></g><g fill="#000000" fill-opacity="1"><g transform="translate(189.919903, 160.296778)"><g><path d="M 2.015625 0 L 2.015625 -22.40625 L 6 -22.40625 L 6 0 Z M 2.015625 0 "/></g></g></g><g fill="#000000" fill-opacity="1"><g transform="translate(197.977528, 160.296778)"><g><path d="M 4.171875 -17.828125 C 3.441406 -17.828125 2.84375 -18.039062 2.375 -18.46875 C 1.914062 -18.90625 1.6875 -19.457031 1.6875 -20.125 C 1.6875 -20.789062 1.914062 -21.335938 2.375 -21.765625 C 2.84375 -22.191406 3.441406 -22.40625 4.171875 -22.40625 C 4.890625 -22.40625 5.484375 -22.191406 5.953125 -21.765625 C 6.421875 -21.335938 6.65625 -20.789062 6.65625 -20.125 C 6.65625 -19.457031 6.421875 -18.90625 5.953125 -18.46875 C 5.484375 -18.039062 4.890625 -17.828125 4.171875 -17.828125 Z M 2.171875 0 L 2.171875 -15.4375 L 6.15625 -15.4375 L 6.15625 0 Z M 2.171875 0 "/></g></g></g><g fill="#000000" fill-opacity="1"><g transform="translate(206.284033, 160.296778)"><g><path d="M 9.578125 0.375 C 8.003906 0.375 6.613281 0.03125 5.40625 -0.65625 C 4.207031 -1.34375 3.257812 -2.296875 2.5625 -3.515625 C 1.875 -4.734375 1.53125 -6.132812 1.53125 -7.71875 C 1.53125 -9.289062 1.875 -10.6875 2.5625 -11.90625 C 3.257812 -13.132812 4.207031 -14.085938 5.40625 -14.765625 C 6.613281 -15.453125 8.003906 -15.796875 9.578125 -15.796875 C 11.546875 -15.796875 13.203125 -15.28125 14.546875 -14.25 C 15.898438 -13.226562 16.765625 -11.816406 17.140625 -10.015625 L 12.9375 -10.015625 C 12.726562 -10.765625 12.316406 -11.347656 11.703125 -11.765625 C 11.097656 -12.191406 10.378906 -12.40625 9.546875 -12.40625 C 8.453125 -12.40625 7.519531 -11.988281 6.75 -11.15625 C 5.976562 -10.332031 5.59375 -9.1875 5.59375 -7.71875 C 5.59375 -6.238281 5.976562 -5.082031 6.75 -4.25 C 7.519531 -3.425781 8.453125 -3.015625 9.546875 -3.015625 C 10.378906 -3.015625 11.097656 -3.222656 11.703125 -3.640625 C 12.316406 -4.054688 12.726562 -4.644531 12.9375 -5.40625 L 17.140625 -5.40625 C 16.765625 -3.664062 15.898438 -2.265625 14.546875 -1.203125 C 13.203125 -0.148438 11.546875 0.375 9.578125 0.375 Z M 9.578125 0.375 "/></g></g></g><g fill="#000000" fill-opacity="1"><g transform="translate(224.950334, 160.296778)"><g><path d="M 2.015625 0 L 2.015625 -22.40625 L 6 -22.40625 L 6 -9.171875 L 11.484375 -15.4375 L 16.203125 -15.4375 L 9.890625 -8.40625 L 17.234375 0 L 12.25 0 L 6 -7.75 L 6 0 Z M 2.015625 0 "/></g></g></g><g fill="#000000" fill-opacity="1"><g transform="translate(242.621103, 160.296778)"><g><path d="M 7.8125 0.375 C 5.882812 0.375 4.394531 -0.222656 3.34375 -1.421875 C 2.289062 -2.628906 1.765625 -4.394531 1.765625 -6.71875 L 1.765625 -15.4375 L 5.71875 -15.4375 L 5.71875 -7.09375 C 5.71875 -5.769531 5.988281 -4.753906 6.53125 -4.046875 C 7.070312 -3.335938 7.921875 -2.984375 9.078125 -2.984375 C 10.179688 -2.984375 11.085938 -3.375 11.796875 -4.15625 C 12.515625 -4.945312 12.875 -6.050781 12.875 -7.46875 L 12.875 -15.4375 L 16.859375 -15.4375 L 16.859375 0 L 13.34375 0 L 13.03125 -2.609375 C 12.550781 -1.703125 11.859375 -0.976562 10.953125 -0.4375 C 10.054688 0.101562 9.007812 0.375 7.8125 0.375 Z M 7.8125 0.375 "/></g></g></g><g fill="#000000" fill-opacity="1"><g transform="translate(261.536293, 160.296778)"><g><path d="M 2.015625 6.84375 L 2.015625 -15.4375 L 5.5625 -15.4375 L 6 -13.21875 C 6.5 -13.90625 7.15625 -14.503906 7.96875 -15.015625 C 8.789062 -15.535156 9.859375 -15.796875 11.171875 -15.796875 C 12.617188 -15.796875 13.910156 -15.441406 15.046875 -14.734375 C 16.191406 -14.035156 17.097656 -13.070312 17.765625 -11.84375 C 18.429688 -10.625 18.765625 -9.238281 18.765625 -7.6875 C 18.765625 -6.125 18.429688 -4.738281 17.765625 -3.53125 C 17.097656 -2.320312 16.191406 -1.367188 15.046875 -0.671875 C 13.910156 0.0234375 12.617188 0.375 11.171875 0.375 C 10.003906 0.375 8.984375 0.15625 8.109375 -0.28125 C 7.242188 -0.71875 6.539062 -1.328125 6 -2.109375 L 6 6.84375 Z M 10.328125 -3.109375 C 11.585938 -3.109375 12.632812 -3.53125 13.46875 -4.375 C 14.300781 -5.226562 14.71875 -6.332031 14.71875 -7.6875 C 14.71875 -9.03125 14.300781 -10.132812 13.46875 -11 C 12.632812 -11.875 11.585938 -12.3125 10.328125 -12.3125 C 9.046875 -12.3125 7.992188 -11.878906 7.171875 -11.015625 C 6.347656 -10.160156 5.9375 -9.0625 5.9375 -7.71875 C 5.9375 -6.363281 6.347656 -5.253906 7.171875 -4.390625 C 7.992188 -3.535156 9.046875 -3.109375 10.328125 -3.109375 Z M 10.328125 -3.109375 "/></g></g></g><g fill="#000000" fill-opacity="1"><g transform="translate(281.820341, 160.296778)"><g/></g></g><g fill="#000000" fill-opacity="1"><g transform="translate(289.224642, 160.296778)"><g><path d="M 0.71875 0 L 8.671875 -21.78125 L 13.15625 -21.78125 L 21.125 0 L 16.890625 0 L 15.15625 -5.046875 L 6.65625 -5.046875 L 4.890625 0 Z M 7.75 -8.15625 L 14.0625 -8.15625 L 10.890625 -17.203125 Z M 7.75 -8.15625 "/></g></g></g><g fill="#000000" fill-opacity="1"><g transform="translate(311.033092, 160.296778)"><g><path d="M 8.5625 -4.609375 C 7.8125 -4.609375 7.113281 -4.691406 6.46875 -4.859375 L 5.3125 -3.703125 C 5.664062 -3.515625 6.144531 -3.359375 6.75 -3.234375 C 7.351562 -3.109375 8.328125 -2.984375 9.671875 -2.859375 C 11.722656 -2.671875 13.210938 -2.179688 14.140625 -1.390625 C 15.078125 -0.609375 15.546875 0.472656 15.546875 1.859375 C 15.546875 2.773438 15.296875 3.640625 14.796875 4.453125 C 14.304688 5.273438 13.539062 5.941406 12.5 6.453125 C 11.46875 6.960938 10.144531 7.21875 8.53125 7.21875 C 6.320312 7.21875 4.546875 6.804688 3.203125 5.984375 C 1.859375 5.171875 1.1875 3.941406 1.1875 2.296875 C 1.1875 0.910156 1.859375 -0.289062 3.203125 -1.3125 C 2.785156 -1.5 2.425781 -1.691406 2.125 -1.890625 C 1.832031 -2.097656 1.570312 -2.316406 1.34375 -2.546875 L 1.34375 -3.265625 L 4.046875 -6.125 C 2.835938 -7.1875 2.234375 -8.546875 2.234375 -10.203125 C 2.234375 -11.242188 2.488281 -12.1875 3 -13.03125 C 3.507812 -13.882812 4.226562 -14.554688 5.15625 -15.046875 C 6.09375 -15.546875 7.226562 -15.796875 8.5625 -15.796875 C 9.425781 -15.796875 10.234375 -15.675781 10.984375 -15.4375 L 16.828125 -15.4375 L 16.828125 -13 L 14.1875 -12.8125 C 14.601562 -12.03125 14.8125 -11.160156 14.8125 -10.203125 C 14.8125 -9.160156 14.5625 -8.210938 14.0625 -7.359375 C 13.5625 -6.515625 12.835938 -5.84375 11.890625 -5.34375 C 10.953125 -4.851562 9.84375 -4.609375 8.5625 -4.609375 Z M 8.5625 -7.65625 C 9.363281 -7.65625 10.03125 -7.867188 10.5625 -8.296875 C 11.09375 -8.734375 11.359375 -9.359375 11.359375 -10.171875 C 11.359375 -10.984375 11.09375 -11.601562 10.5625 -12.03125 C 10.03125 -12.46875 9.363281 -12.6875 8.5625 -12.6875 C 7.707031 -12.6875 7.019531 -12.46875 6.5 -12.03125 C 5.976562 -11.601562 5.71875 -10.984375 5.71875 -10.171875 C 5.71875 -9.359375 5.976562 -8.734375 6.5 -8.296875 C 7.019531 -7.867188 7.707031 -7.65625 8.5625 -7.65625 Z M 4.828125 1.890625 C 4.828125 2.660156 5.179688 3.238281 5.890625 3.625 C 6.609375 4.007812 7.488281 4.203125 8.53125 4.203125 C 9.519531 4.203125 10.328125 4 10.953125 3.59375 C 11.578125 3.1875 11.890625 2.640625 11.890625 1.953125 C 11.890625 1.398438 11.6875 0.9375 11.28125 0.5625 C 10.875 0.1875 10.066406 -0.0390625 8.859375 -0.125 C 8.015625 -0.1875 7.226562 -0.28125 6.5 -0.40625 C 5.894531 -0.0703125 5.460938 0.289062 5.203125 0.6875 C 4.953125 1.082031 4.828125 1.484375 4.828125 1.890625 Z M 4.828125 1.890625 "/></g></g></g><g fill="#000000" fill-opacity="1"><g transform="translate(328.73497, 160.296778)"><g><path d="M 9.515625 0.375 C 7.960938 0.375 6.582031 0.0390625 5.375 -0.625 C 4.175781 -1.289062 3.234375 -2.222656 2.546875 -3.421875 C 1.867188 -4.617188 1.53125 -6.007812 1.53125 -7.59375 C 1.53125 -9.1875 1.863281 -10.601562 2.53125 -11.84375 C 3.207031 -13.09375 4.140625 -14.0625 5.328125 -14.75 C 6.523438 -15.445312 7.929688 -15.796875 9.546875 -15.796875 C 11.066406 -15.796875 12.40625 -15.460938 13.5625 -14.796875 C 14.726562 -14.140625 15.632812 -13.234375 16.28125 -12.078125 C 16.9375 -10.929688 17.265625 -9.65625 17.265625 -8.25 C 17.265625 -8.019531 17.257812 -7.78125 17.25 -7.53125 C 17.238281 -7.28125 17.222656 -7.019531 17.203125 -6.75 L 5.46875 -6.75 C 5.550781 -5.550781 5.972656 -4.609375 6.734375 -3.921875 C 7.492188 -3.234375 8.410156 -2.890625 9.484375 -2.890625 C 10.296875 -2.890625 10.972656 -3.070312 11.515625 -3.4375 C 12.066406 -3.800781 12.476562 -4.273438 12.75 -4.859375 L 16.796875 -4.859375 C 16.503906 -3.878906 16.019531 -2.988281 15.34375 -2.1875 C 14.675781 -1.394531 13.847656 -0.769531 12.859375 -0.3125 C 11.878906 0.144531 10.765625 0.375 9.515625 0.375 Z M 9.546875 -12.5625 C 8.578125 -12.5625 7.71875 -12.285156 6.96875 -11.734375 C 6.21875 -11.191406 5.738281 -10.359375 5.53125 -9.234375 L 13.21875 -9.234375 C 13.15625 -10.253906 12.78125 -11.0625 12.09375 -11.65625 C 11.414062 -12.257812 10.566406 -12.5625 9.546875 -12.5625 Z M 9.546875 -12.5625 "/></g></g></g><g fill="#000000" fill-opacity="1"><g transform="translate(347.339061, 160.296778)"><g><path d="M 2.015625 0 L 2.015625 -15.4375 L 5.53125 -15.4375 L 5.84375 -12.8125 C 6.320312 -13.726562 7.007812 -14.453125 7.90625 -14.984375 C 8.8125 -15.523438 9.878906 -15.796875 11.109375 -15.796875 C 13.015625 -15.796875 14.492188 -15.191406 15.546875 -13.984375 C 16.609375 -12.785156 17.140625 -11.023438 17.140625 -8.703125 L 17.140625 0 L 13.15625 0 L 13.15625 -8.34375 C 13.15625 -9.664062 12.882812 -10.675781 12.34375 -11.375 C 11.8125 -12.082031 10.972656 -12.4375 9.828125 -12.4375 C 8.710938 -12.4375 7.796875 -12.039062 7.078125 -11.25 C 6.359375 -10.46875 6 -9.375 6 -7.96875 L 6 0 Z M 2.015625 0 "/></g></g></g><g fill="#000000" fill-opacity="1"><g transform="translate(366.254243, 160.296778)"><g><path d="M 9.578125 0.375 C 8.003906 0.375 6.613281 0.03125 5.40625 -0.65625 C 4.207031 -1.34375 3.257812 -2.296875 2.5625 -3.515625 C 1.875 -4.734375 1.53125 -6.132812 1.53125 -7.71875 C 1.53125 -9.289062 1.875 -10.6875 2.5625 -11.90625 C 3.257812 -13.132812 4.207031 -14.085938 5.40625 -14.765625 C 6.613281 -15.453125 8.003906 -15.796875 9.578125 -15.796875 C 11.546875 -15.796875 13.203125 -15.28125 14.546875 -14.25 C 15.898438 -13.226562 16.765625 -11.816406 17.140625 -10.015625 L 12.9375 -10.015625 C 12.726562 -10.765625 12.316406 -11.347656 11.703125 -11.765625 C 11.097656 -12.191406 10.378906 -12.40625 9.546875 -12.40625 C 8.453125 -12.40625 7.519531 -11.988281 6.75 -11.15625 C 5.976562 -10.332031 5.59375 -9.1875 5.59375 -7.71875 C 5.59375 -6.238281 5.976562 -5.082031 6.75 -4.25 C 7.519531 -3.425781 8.453125 -3.015625 9.546875 -3.015625 C 10.378906 -3.015625 11.097656 -3.222656 11.703125 -3.640625 C 12.316406 -4.054688 12.726562 -4.644531 12.9375 -5.40625 L 17.140625 -5.40625 C 16.765625 -3.664062 15.898438 -2.265625 14.546875 -1.203125 C 13.203125 -0.148438 11.546875 0.375 9.578125 0.375 Z M 9.578125 0.375 "/></g></g></g><g fill="#000000" fill-opacity="1"><g transform="translate(384.920553, 160.296778)"><g><path d="M 3.953125 6.84375 L 7.53125 -1.03125 L 6.59375 -1.03125 L 0.59375 -15.4375 L 4.921875 -15.4375 L 9.234375 -4.578125 L 13.75 -15.4375 L 17.984375 -15.4375 L 8.1875 6.84375 Z M 3.953125 6.84375 "/></g></g></g><g fill="#000000" fill-opacity="1"><g transform="translate(403.493518, 160.296778)"><g/></g></g><g fill="#000000" fill-opacity="1"><g transform="translate(410.89781, 160.296778)"><g><path d="M 6.53125 0 L 0.78125 -21.78125 L 5.046875 -21.78125 L 8.953125 -4.453125 L 13.5625 -21.78125 L 17.953125 -21.78125 L 22.4375 -4.453125 L 26.34375 -21.78125 L 30.640625 -21.78125 L 24.734375 0 L 20 0 L 15.671875 -16.140625 L 11.234375 0 Z M 6.53125 0 "/></g></g></g><g fill="#000000" fill-opacity="1"><g transform="translate(442.319422, 160.296778)"><g><path d="M 9.421875 0.375 C 7.929688 0.375 6.585938 0.03125 5.390625 -0.65625 C 4.203125 -1.34375 3.257812 -2.289062 2.5625 -3.5 C 1.875 -4.707031 1.53125 -6.113281 1.53125 -7.71875 C 1.53125 -9.3125 1.878906 -10.710938 2.578125 -11.921875 C 3.285156 -13.140625 4.234375 -14.085938 5.421875 -14.765625 C 6.617188 -15.453125 7.960938 -15.796875 9.453125 -15.796875 C 10.929688 -15.796875 12.265625 -15.453125 13.453125 -14.765625 C 14.648438 -14.085938 15.59375 -13.140625 16.28125 -11.921875 C 16.976562 -10.710938 17.328125 -9.3125 17.328125 -7.71875 C 17.328125 -6.113281 16.976562 -4.707031 16.28125 -3.5 C 15.59375 -2.289062 14.644531 -1.34375 13.4375 -0.65625 C 12.238281 0.03125 10.898438 0.375 9.421875 0.375 Z M 9.421875 -3.078125 C 10.460938 -3.078125 11.363281 -3.460938 12.125 -4.234375 C 12.894531 -5.015625 13.28125 -6.175781 13.28125 -7.71875 C 13.28125 -9.25 12.894531 -10.398438 12.125 -11.171875 C 11.363281 -11.953125 10.472656 -12.34375 9.453125 -12.34375 C 8.398438 -12.34375 7.492188 -11.953125 6.734375 -11.171875 C 5.972656 -10.398438 5.59375 -9.25 5.59375 -7.71875 C 5.59375 -6.175781 5.972656 -5.015625 6.734375 -4.234375 C 7.492188 -3.460938 8.390625 -3.078125 9.421875 -3.078125 Z M 9.421875 -3.078125 "/></g></g></g><g fill="#000000" fill-opacity="1"><g transform="translate(461.172369, 160.296778)"><g><path d="M 2.015625 0 L 2.015625 -15.4375 L 5.5625 -15.4375 L 5.9375 -12.53125 C 6.5 -13.53125 7.257812 -14.320312 8.21875 -14.90625 C 9.1875 -15.5 10.328125 -15.796875 11.640625 -15.796875 L 11.640625 -11.609375 L 10.515625 -11.609375 C 9.640625 -11.609375 8.859375 -11.472656 8.171875 -11.203125 C 7.492188 -10.929688 6.960938 -10.460938 6.578125 -9.796875 C 6.191406 -9.128906 6 -8.207031 6 -7.03125 L 6 0 Z M 2.015625 0 "/></g></g></g><g fill="#000000" fill-opacity="1"><g transform="translate(473.492128, 160.296778)"><g><path d="M 2.015625 0 L 2.015625 -22.40625 L 6 -22.40625 L 6 -9.171875 L 11.484375 -15.4375 L 16.203125 -15.4375 L 9.890625 -8.40625 L 17.234375 0 L 12.25 0 L 6 -7.75 L 6 0 Z M 2.015625 0 "/></g></g></g><g fill="#000000" fill-opacity="1"><g transform="translate(491.162913, 160.296778)"><g><path d="M 8.40625 0.375 C 7.03125 0.375 5.820312 0.148438 4.78125 -0.296875 C 3.75 -0.742188 2.921875 -1.359375 2.296875 -2.140625 C 1.679688 -2.929688 1.3125 -3.847656 1.1875 -4.890625 L 5.1875 -4.890625 C 5.3125 -4.285156 5.648438 -3.769531 6.203125 -3.34375 C 6.753906 -2.914062 7.46875 -2.703125 8.34375 -2.703125 C 9.207031 -2.703125 9.84375 -2.878906 10.25 -3.234375 C 10.65625 -3.585938 10.859375 -3.992188 10.859375 -4.453125 C 10.859375 -5.109375 10.566406 -5.554688 9.984375 -5.796875 C 9.398438 -6.035156 8.59375 -6.269531 7.5625 -6.5 C 6.894531 -6.644531 6.21875 -6.820312 5.53125 -7.03125 C 4.851562 -7.238281 4.226562 -7.503906 3.65625 -7.828125 C 3.082031 -8.148438 2.617188 -8.5625 2.265625 -9.0625 C 1.910156 -9.570312 1.734375 -10.203125 1.734375 -10.953125 C 1.734375 -12.316406 2.28125 -13.460938 3.375 -14.390625 C 4.46875 -15.328125 6 -15.796875 7.96875 -15.796875 C 9.789062 -15.796875 11.242188 -15.367188 12.328125 -14.515625 C 13.421875 -13.671875 14.070312 -12.503906 14.28125 -11.015625 L 10.515625 -11.015625 C 10.285156 -12.148438 9.425781 -12.71875 7.9375 -12.71875 C 7.1875 -12.71875 6.609375 -12.570312 6.203125 -12.28125 C 5.796875 -12 5.59375 -11.640625 5.59375 -11.203125 C 5.59375 -10.742188 5.894531 -10.378906 6.5 -10.109375 C 7.101562 -9.835938 7.898438 -9.585938 8.890625 -9.359375 C 9.972656 -9.109375 10.960938 -8.832031 11.859375 -8.53125 C 12.765625 -8.238281 13.488281 -7.796875 14.03125 -7.203125 C 14.570312 -6.609375 14.84375 -5.765625 14.84375 -4.671875 C 14.863281 -3.710938 14.613281 -2.847656 14.09375 -2.078125 C 13.570312 -1.316406 12.820312 -0.71875 11.84375 -0.28125 C 10.875 0.15625 9.726562 0.375 8.40625 0.375 Z M 8.40625 0.375 "/></g></g></g><g fill="#000000" fill-opacity="1"><g transform="translate(507.495926, 160.296778)"><g><path d="M 2.015625 6.84375 L 2.015625 -15.4375 L 5.5625 -15.4375 L 6 -13.21875 C 6.5 -13.90625 7.15625 -14.503906 7.96875 -15.015625 C 8.789062 -15.535156 9.859375 -15.796875 11.171875 -15.796875 C 12.617188 -15.796875 13.910156 -15.441406 15.046875 -14.734375 C 16.191406 -14.035156 17.097656 -13.070312 17.765625 -11.84375 C 18.429688 -10.625 18.765625 -9.238281 18.765625 -7.6875 C 18.765625 -6.125 18.429688 -4.738281 17.765625 -3.53125 C 17.097656 -2.320312 16.191406 -1.367188 15.046875 -0.671875 C 13.910156 0.0234375 12.617188 0.375 11.171875 0.375 C 10.003906 0.375 8.984375 0.15625 8.109375 -0.28125 C 7.242188 -0.71875 6.539062 -1.328125 6 -2.109375 L 6 6.84375 Z M 10.328125 -3.109375 C 11.585938 -3.109375 12.632812 -3.53125 13.46875 -4.375 C 14.300781 -5.226562 14.71875 -6.332031 14.71875 -7.6875 C 14.71875 -9.03125 14.300781 -10.132812 13.46875 -11 C 12.632812 -11.875 11.585938 -12.3125 10.328125 -12.3125 C 9.046875 -12.3125 7.992188 -11.878906 7.171875 -11.015625 C 6.347656 -10.160156 5.9375 -9.0625 5.9375 -7.71875 C 5.9375 -6.363281 6.347656 -5.253906 7.171875 -4.390625 C 7.992188 -3.535156 9.046875 -3.109375 10.328125 -3.109375 Z M 10.328125 -3.109375 "/></g></g></g><g fill="#000000" fill-opacity="1"><g transform="translate(527.779974, 160.296778)"><g><path d="M 7.34375 0.375 C 6.007812 0.375 4.914062 0.160156 4.0625 -0.265625 C 3.21875 -0.691406 2.585938 -1.253906 2.171875 -1.953125 C 1.765625 -2.660156 1.5625 -3.441406 1.5625 -4.296875 C 1.5625 -5.722656 2.117188 -6.878906 3.234375 -7.765625 C 4.359375 -8.660156 6.039062 -9.109375 8.28125 -9.109375 L 12.1875 -9.109375 L 12.1875 -9.484375 C 12.1875 -10.546875 11.882812 -11.320312 11.28125 -11.8125 C 10.6875 -12.3125 9.941406 -12.5625 9.046875 -12.5625 C 8.242188 -12.5625 7.539062 -12.367188 6.9375 -11.984375 C 6.332031 -11.609375 5.957031 -11.046875 5.8125 -10.296875 L 1.921875 -10.296875 C 2.023438 -11.421875 2.40625 -12.394531 3.0625 -13.21875 C 3.71875 -14.050781 4.5625 -14.6875 5.59375 -15.125 C 6.632812 -15.570312 7.796875 -15.796875 9.078125 -15.796875 C 11.273438 -15.796875 13.003906 -15.242188 14.265625 -14.140625 C 15.535156 -13.046875 16.171875 -11.492188 16.171875 -9.484375 L 16.171875 0 L 12.78125 0 L 12.40625 -2.484375 C 11.957031 -1.660156 11.320312 -0.976562 10.5 -0.4375 C 9.675781 0.101562 8.625 0.375 7.34375 0.375 Z M 8.25 -2.734375 C 9.382812 -2.734375 10.269531 -3.109375 10.90625 -3.859375 C 11.539062 -4.609375 11.9375 -5.53125 12.09375 -6.625 L 8.703125 -6.625 C 7.648438 -6.625 6.894531 -6.429688 6.4375 -6.046875 C 5.976562 -5.660156 5.75 -5.191406 5.75 -4.640625 C 5.75 -4.035156 5.976562 -3.566406 6.4375 -3.234375 C 6.894531 -2.898438 7.5 -2.734375 8.25 -2.734375 Z M 8.25 -2.734375 "/></g></g></g><g fill="#000000" fill-opacity="1"><g transform="translate(545.730725, 160.296778)"><g><path d="M 9.578125 0.375 C 8.003906 0.375 6.613281 0.03125 5.40625 -0.65625 C 4.207031 -1.34375 3.257812 -2.296875 2.5625 -3.515625 C 1.875 -4.734375 1.53125 -6.132812 1.53125 -7.71875 C 1.53125 -9.289062 1.875 -10.6875 2.5625 -11.90625 C 3.257812 -13.132812 4.207031 -14.085938 5.40625 -14.765625 C 6.613281 -15.453125 8.003906 -15.796875 9.578125 -15.796875 C 11.546875 -15.796875 13.203125 -15.28125 14.546875 -14.25 C 15.898438 -13.226562 16.765625 -11.816406 17.140625 -10.015625 L 12.9375 -10.015625 C 12.726562 -10.765625 12.316406 -11.347656 11.703125 -11.765625 C 11.097656 -12.191406 10.378906 -12.40625 9.546875 -12.40625 C 8.453125 -12.40625 7.519531 -11.988281 6.75 -11.15625 C 5.976562 -10.332031 5.59375 -9.1875 5.59375 -7.71875 C 5.59375 -6.238281 5.976562 -5.082031 6.75 -4.25 C 7.519531 -3.425781 8.453125 -3.015625 9.546875 -3.015625 C 10.378906 -3.015625 11.097656 -3.222656 11.703125 -3.640625 C 12.316406 -4.054688 12.726562 -4.644531 12.9375 -5.40625 L 17.140625 -5.40625 C 16.765625 -3.664062 15.898438 -2.265625 14.546875 -1.203125 C 13.203125 -0.148438 11.546875 0.375 9.578125 0.375 Z M 9.578125 0.375 "/></g></g></g><g fill="#000000" fill-opacity="1"><g transform="translate(564.397034, 160.296778)"><g><path d="M 9.515625 0.375 C 7.960938 0.375 6.582031 0.0390625 5.375 -0.625 C 4.175781 -1.289062 3.234375 -2.222656 2.546875 -3.421875 C 1.867188 -4.617188 1.53125 -6.007812 1.53125 -7.59375 C 1.53125 -9.1875 1.863281 -10.601562 2.53125 -11.84375 C 3.207031 -13.09375 4.140625 -14.0625 5.328125 -14.75 C 6.523438 -15.445312 7.929688 -15.796875 9.546875 -15.796875 C 11.066406 -15.796875 12.40625 -15.460938 13.5625 -14.796875 C 14.726562 -14.140625 15.632812 -13.234375 16.28125 -12.078125 C 16.9375 -10.929688 17.265625 -9.65625 17.265625 -8.25 C 17.265625 -8.019531 17.257812 -7.78125 17.25 -7.53125 C 17.238281 -7.28125 17.222656 -7.019531 17.203125 -6.75 L 5.46875 -6.75 C 5.550781 -5.550781 5.972656 -4.609375 6.734375 -3.921875 C 7.492188 -3.234375 8.410156 -2.890625 9.484375 -2.890625 C 10.296875 -2.890625 10.972656 -3.070312 11.515625 -3.4375 C 12.066406 -3.800781 12.476562 -4.273438 12.75 -4.859375 L 16.796875 -4.859375 C 16.503906 -3.878906 16.019531 -2.988281 15.34375 -2.1875 C 14.675781 -1.394531 13.847656 -0.769531 12.859375 -0.3125 C 11.878906 0.144531 10.765625 0.375 9.515625 0.375 Z M 9.546875 -12.5625 C 8.578125 -12.5625 7.71875 -12.285156 6.96875 -11.734375 C 6.21875 -11.191406 5.738281 -10.359375 5.53125 -9.234375 L 13.21875 -9.234375 C 13.15625 -10.253906 12.78125 -11.0625 12.09375 -11.65625 C 11.414062 -12.257812 10.566406 -12.5625 9.546875 -12.5625 Z M 9.546875 -12.5625 "/></g></g></g></svg>