<svg xmlns="http://www.w3.org/2000/svg" xmlns:xlink="http://www.w3.org/1999/xlink" width="1000" zoomAndPan="magnify" viewBox="0 0 750 299.999988" height="400" preserveAspectRatio="xMidYMid meet" version="1.0"><defs><g/></defs><rect x="-75" width="900" fill="#ffffff" y="-29.999999" height="359.999986" fill-opacity="1"/><rect x="-75" width="900" fill="#a43ae7" y="-29.999999" height="359.999986" fill-opacity="1"/><path fill="#ffffff" d="M 202.050781 123.183594 L 547.9375 123.183594 C 551.457031 123.183594 554.835938 124.582031 557.324219 127.070312 C 559.8125 129.558594 561.210938 132.9375 561.210938 136.457031 L 561.210938 163 C 561.210938 166.523438 559.8125 169.898438 557.324219 172.386719 C 554.835938 174.875 551.457031 176.273438 547.9375 176.273438 L 202.050781 176.273438 C 194.722656 176.273438 188.777344 170.332031 188.777344 163 L 188.777344 136.457031 C 188.777344 129.125 194.722656 123.183594 202.050781 123.183594 Z M 202.050781 123.183594 " fill-opacity="1" fill-rule="nonzero"/><g fill="#000000" fill-opacity="1"><g transform="translate(201.223579, 160.296807)"><g><path d="M 2.109375 0 L 2.109375 -21.78125 L 10.109375 -21.78125 C 11.847656 -21.78125 13.28125 -21.484375 14.40625 -20.890625 C 15.539062 -20.296875 16.390625 -19.492188 16.953125 -18.484375 C 17.515625 -17.484375 17.796875 -16.375 17.796875 -15.15625 C 17.796875 -13.820312 17.445312 -12.601562 16.75 -11.5 C 16.050781 -10.40625 14.96875 -9.609375 13.5 -9.109375 L 18.015625 0 L 13.4375 0 L 9.390625 -8.59375 L 6.09375 -8.59375 L 6.09375 0 Z M 6.09375 -11.515625 L 9.859375 -11.515625 C 11.191406 -11.515625 12.164062 -11.832031 12.78125 -12.46875 C 13.40625 -13.113281 13.71875 -13.96875 13.71875 -15.03125 C 13.71875 -16.0625 13.410156 -16.890625 12.796875 -17.515625 C 12.191406 -18.140625 11.203125 -18.453125 9.828125 -18.453125 L 6.09375 -18.453125 Z M 6.09375 -11.515625 "/></g></g></g><g fill="#000000" fill-opacity="1"><g transform="translate(220.605422, 160.296807)"><g><path d="M 9.515625 0.375 C 7.960938 0.375 6.582031 0.0390625 5.375 -0.625 C 4.175781 -1.289062 3.234375 -2.222656 2.546875 -3.421875 C 1.867188 -4.617188 1.53125 -6.007812 1.53125 -7.59375 C 1.53125 -9.1875 1.863281 -10.601562 2.53125 -11.84375 C 3.207031 -13.09375 4.140625 -14.0625 5.328125 -14.75 C 6.523438 -15.445312 7.929688 -15.796875 9.546875 -15.796875 C 11.066406 -15.796875 12.40625 -15.460938 13.5625 -14.796875 C 14.726562 -14.140625 15.632812 -13.234375 16.28125 -12.078125 C 16.9375 -10.929688 17.265625 -9.65625 17.265625 -8.25 C 17.265625 -8.019531 17.257812 -7.78125 17.25 -7.53125 C 17.238281 -7.28125 17.222656 -7.019531 17.203125 -6.75 L 5.46875 -6.75 C 5.550781 -5.550781 5.972656 -4.609375 6.734375 -3.921875 C 7.492188 -3.234375 8.410156 -2.890625 9.484375 -2.890625 C 10.296875 -2.890625 10.972656 -3.070312 11.515625 -3.4375 C 12.066406 -3.800781 12.476562 -4.273438 12.75 -4.859375 L 16.796875 -4.859375 C 16.503906 -3.878906 16.019531 -2.988281 15.34375 -2.1875 C 14.675781 -1.394531 13.847656 -0.769531 12.859375 -0.3125 C 11.878906 0.144531 10.765625 0.375 9.515625 0.375 Z M 9.546875 -12.5625 C 8.578125 -12.5625 7.71875 -12.285156 6.96875 -11.734375 C 6.21875 -11.191406 5.738281 -10.359375 5.53125 -9.234375 L 13.21875 -9.234375 C 13.15625 -10.253906 12.78125 -11.0625 12.09375 -11.65625 C 11.414062 -12.257812 10.566406 -12.5625 9.546875 -12.5625 Z M 9.546875 -12.5625 "/></g></g></g><g fill="#000000" fill-opacity="1"><g transform="translate(239.209505, 160.296807)"><g><path d="M 7.34375 0.375 C 6.007812 0.375 4.914062 0.160156 4.0625 -0.265625 C 3.21875 -0.691406 2.585938 -1.253906 2.171875 -1.953125 C 1.765625 -2.660156 1.5625 -3.441406 1.5625 -4.296875 C 1.5625 -5.722656 2.117188 -6.878906 3.234375 -7.765625 C 4.359375 -8.660156 6.039062 -9.109375 8.28125 -9.109375 L 12.1875 -9.109375 L 12.1875 -9.484375 C 12.1875 -10.546875 11.882812 -11.320312 11.28125 -11.8125 C 10.6875 -12.3125 9.941406 -12.5625 9.046875 -12.5625 C 8.242188 -12.5625 7.539062 -12.367188 6.9375 -11.984375 C 6.332031 -11.609375 5.957031 -11.046875 5.8125 -10.296875 L 1.921875 -10.296875 C 2.023438 -11.421875 2.40625 -12.394531 3.0625 -13.21875 C 3.71875 -14.050781 4.5625 -14.6875 5.59375 -15.125 C 6.632812 -15.570312 7.796875 -15.796875 9.078125 -15.796875 C 11.273438 -15.796875 13.003906 -15.242188 14.265625 -14.140625 C 15.535156 -13.046875 16.171875 -11.492188 16.171875 -9.484375 L 16.171875 0 L 12.78125 0 L 12.40625 -2.484375 C 11.957031 -1.660156 11.320312 -0.976562 10.5 -0.4375 C 9.675781 0.101562 8.625 0.375 7.34375 0.375 Z M 8.25 -2.734375 C 9.382812 -2.734375 10.269531 -3.109375 10.90625 -3.859375 C 11.539062 -4.609375 11.9375 -5.53125 12.09375 -6.625 L 8.703125 -6.625 C 7.648438 -6.625 6.894531 -6.429688 6.4375 -6.046875 C 5.976562 -5.660156 5.75 -5.191406 5.75 -4.640625 C 5.75 -4.035156 5.976562 -3.566406 6.4375 -3.234375 C 6.894531 -2.898438 7.5 -2.734375 8.25 -2.734375 Z M 8.25 -2.734375 "/></g></g></g><g fill="#000000" fill-opacity="1"><g transform="translate(257.160264, 160.296807)"><g><path d="M 2.015625 0 L 2.015625 -22.40625 L 6 -22.40625 L 6 0 Z M 2.015625 0 "/></g></g></g><g fill="#000000" fill-opacity="1"><g transform="translate(265.217888, 160.296807)"><g/></g></g><g fill="#000000" fill-opacity="1"><g transform="translate(272.622189, 160.296807)"><g><path d="M 7.1875 0 L 7.1875 -18.578125 L 0.84375 -18.578125 L 0.84375 -21.78125 L 17.546875 -21.78125 L 17.546875 -18.578125 L 11.171875 -18.578125 L 11.171875 0 Z M 7.1875 0 "/></g></g></g><g fill="#000000" fill-opacity="1"><g transform="translate(291.0085, 160.296807)"><g><path d="M 4.171875 -17.828125 C 3.441406 -17.828125 2.84375 -18.039062 2.375 -18.46875 C 1.914062 -18.90625 1.6875 -19.457031 1.6875 -20.125 C 1.6875 -20.789062 1.914062 -21.335938 2.375 -21.765625 C 2.84375 -22.191406 3.441406 -22.40625 4.171875 -22.40625 C 4.890625 -22.40625 5.484375 -22.191406 5.953125 -21.765625 C 6.421875 -21.335938 6.65625 -20.789062 6.65625 -20.125 C 6.65625 -19.457031 6.421875 -18.90625 5.953125 -18.46875 C 5.484375 -18.039062 4.890625 -17.828125 4.171875 -17.828125 Z M 2.171875 0 L 2.171875 -15.4375 L 6.15625 -15.4375 L 6.15625 0 Z M 2.171875 0 "/></g></g></g><g fill="#000000" fill-opacity="1"><g transform="translate(299.315005, 160.296807)"><g><path d="M 2.015625 0 L 2.015625 -15.4375 L 5.53125 -15.4375 L 5.875 -13.34375 C 6.375 -14.09375 7.03125 -14.6875 7.84375 -15.125 C 8.664062 -15.570312 9.617188 -15.796875 10.703125 -15.796875 C 13.085938 -15.796875 14.773438 -14.875 15.765625 -13.03125 C 16.328125 -13.882812 17.078125 -14.554688 18.015625 -15.046875 C 18.960938 -15.546875 20 -15.796875 21.125 -15.796875 C 23.132812 -15.796875 24.675781 -15.191406 25.75 -13.984375 C 26.832031 -12.785156 27.375 -11.023438 27.375 -8.703125 L 27.375 0 L 23.390625 0 L 23.390625 -8.34375 C 23.390625 -9.664062 23.132812 -10.675781 22.625 -11.375 C 22.125 -12.082031 21.34375 -12.4375 20.28125 -12.4375 C 19.207031 -12.4375 18.34375 -12.039062 17.6875 -11.25 C 17.03125 -10.46875 16.703125 -9.375 16.703125 -7.96875 L 16.703125 0 L 12.71875 0 L 12.71875 -8.34375 C 12.71875 -9.664062 12.457031 -10.675781 11.9375 -11.375 C 11.425781 -12.082031 10.628906 -12.4375 9.546875 -12.4375 C 8.492188 -12.4375 7.640625 -12.039062 6.984375 -11.25 C 6.328125 -10.46875 6 -9.375 6 -7.96875 L 6 0 Z M 2.015625 0 "/></g></g></g><g fill="#000000" fill-opacity="1"><g transform="translate(328.465547, 160.296807)"><g><path d="M 9.515625 0.375 C 7.960938 0.375 6.582031 0.0390625 5.375 -0.625 C 4.175781 -1.289062 3.234375 -2.222656 2.546875 -3.421875 C 1.867188 -4.617188 1.53125 -6.007812 1.53125 -7.59375 C 1.53125 -9.1875 1.863281 -10.601562 2.53125 -11.84375 C 3.207031 -13.09375 4.140625 -14.0625 5.328125 -14.75 C 6.523438 -15.445312 7.929688 -15.796875 9.546875 -15.796875 C 11.066406 -15.796875 12.40625 -15.460938 13.5625 -14.796875 C 14.726562 -14.140625 15.632812 -13.234375 16.28125 -12.078125 C 16.9375 -10.929688 17.265625 -9.65625 17.265625 -8.25 C 17.265625 -8.019531 17.257812 -7.78125 17.25 -7.53125 C 17.238281 -7.28125 17.222656 -7.019531 17.203125 -6.75 L 5.46875 -6.75 C 5.550781 -5.550781 5.972656 -4.609375 6.734375 -3.921875 C 7.492188 -3.234375 8.410156 -2.890625 9.484375 -2.890625 C 10.296875 -2.890625 10.972656 -3.070312 11.515625 -3.4375 C 12.066406 -3.800781 12.476562 -4.273438 12.75 -4.859375 L 16.796875 -4.859375 C 16.503906 -3.878906 16.019531 -2.988281 15.34375 -2.1875 C 14.675781 -1.394531 13.847656 -0.769531 12.859375 -0.3125 C 11.878906 0.144531 10.765625 0.375 9.515625 0.375 Z M 9.546875 -12.5625 C 8.578125 -12.5625 7.71875 -12.285156 6.96875 -11.734375 C 6.21875 -11.191406 5.738281 -10.359375 5.53125 -9.234375 L 13.21875 -9.234375 C 13.15625 -10.253906 12.78125 -11.0625 12.09375 -11.65625 C 11.414062 -12.257812 10.566406 -12.5625 9.546875 -12.5625 Z M 9.546875 -12.5625 "/></g></g></g><g fill="#000000" fill-opacity="1"><g transform="translate(347.069638, 160.296807)"><g/></g></g><g fill="#000000" fill-opacity="1"><g transform="translate(354.47393, 160.296807)"><g><path d="M 2.109375 0 L 2.109375 -21.78125 L 6.09375 -21.78125 L 16.328125 -6.4375 L 16.328125 -21.78125 L 20.3125 -21.78125 L 20.3125 0 L 16.328125 0 L 6.09375 -15.3125 L 6.09375 0 Z M 2.109375 0 "/></g></g></g><g fill="#000000" fill-opacity="1"><g transform="translate(376.904604, 160.296807)"><g><path d="M 9.421875 0.375 C 7.929688 0.375 6.585938 0.03125 5.390625 -0.65625 C 4.203125 -1.34375 3.257812 -2.289062 2.5625 -3.5 C 1.875 -4.707031 1.53125 -6.113281 1.53125 -7.71875 C 1.53125 -9.3125 1.878906 -10.710938 2.578125 -11.921875 C 3.285156 -13.140625 4.234375 -14.085938 5.421875 -14.765625 C 6.617188 -15.453125 7.960938 -15.796875 9.453125 -15.796875 C 10.929688 -15.796875 12.265625 -15.453125 13.453125 -14.765625 C 14.648438 -14.085938 15.59375 -13.140625 16.28125 -11.921875 C 16.976562 -10.710938 17.328125 -9.3125 17.328125 -7.71875 C 17.328125 -6.113281 16.976562 -4.707031 16.28125 -3.5 C 15.59375 -2.289062 14.644531 -1.34375 13.4375 -0.65625 C 12.238281 0.03125 10.898438 0.375 9.421875 0.375 Z M 9.421875 -3.078125 C 10.460938 -3.078125 11.363281 -3.460938 12.125 -4.234375 C 12.894531 -5.015625 13.28125 -6.175781 13.28125 -7.71875 C 13.28125 -9.25 12.894531 -10.398438 12.125 -11.171875 C 11.363281 -11.953125 10.472656 -12.34375 9.453125 -12.34375 C 8.398438 -12.34375 7.492188 -11.953125 6.734375 -11.171875 C 5.972656 -10.398438 5.59375 -9.25 5.59375 -7.71875 C 5.59375 -6.175781 5.972656 -5.015625 6.734375 -4.234375 C 7.492188 -3.460938 8.390625 -3.078125 9.421875 -3.078125 Z M 9.421875 -3.078125 "/></g></g></g><g fill="#000000" fill-opacity="1"><g transform="translate(395.757568, 160.296807)"><g><path d="M 8.890625 0 C 7.273438 0 5.976562 -0.390625 5 -1.171875 C 4.03125 -1.960938 3.546875 -3.363281 3.546875 -5.375 L 3.546875 -12.09375 L 0.90625 -12.09375 L 0.90625 -15.4375 L 3.546875 -15.4375 L 4.015625 -19.5625 L 7.53125 -19.5625 L 7.53125 -15.4375 L 11.703125 -15.4375 L 11.703125 -12.09375 L 7.53125 -12.09375 L 7.53125 -5.34375 C 7.53125 -4.601562 7.691406 -4.09375 8.015625 -3.8125 C 8.335938 -3.53125 8.890625 -3.390625 9.671875 -3.390625 L 11.609375 -3.390625 L 11.609375 0 Z M 8.890625 0 "/></g></g></g><g fill="#000000" fill-opacity="1"><g transform="translate(408.855086, 160.296807)"><g><path d="M 4.171875 -17.828125 C 3.441406 -17.828125 2.84375 -18.039062 2.375 -18.46875 C 1.914062 -18.90625 1.6875 -19.457031 1.6875 -20.125 C 1.6875 -20.789062 1.914062 -21.335938 2.375 -21.765625 C 2.84375 -22.191406 3.441406 -22.40625 4.171875 -22.40625 C 4.890625 -22.40625 5.484375 -22.191406 5.953125 -21.765625 C 6.421875 -21.335938 6.65625 -20.789062 6.65625 -20.125 C 6.65625 -19.457031 6.421875 -18.90625 5.953125 -18.46875 C 5.484375 -18.039062 4.890625 -17.828125 4.171875 -17.828125 Z M 2.171875 0 L 2.171875 -15.4375 L 6.15625 -15.4375 L 6.15625 0 Z M 2.171875 0 "/></g></g></g><g fill="#000000" fill-opacity="1"><g transform="translate(417.161592, 160.296807)"><g><path d="M 2.734375 0 L 2.734375 -12.09375 L 0.625 -12.09375 L 0.625 -15.4375 L 2.734375 -15.4375 L 2.734375 -17.234375 C 2.734375 -19.097656 3.203125 -20.425781 4.140625 -21.21875 C 5.085938 -22.007812 6.375 -22.40625 8 -22.40625 L 9.703125 -22.40625 L 9.703125 -19 L 8.625 -19 C 7.9375 -19 7.445312 -18.863281 7.15625 -18.59375 C 6.863281 -18.332031 6.71875 -17.878906 6.71875 -17.234375 L 6.71875 -15.4375 L 10.046875 -15.4375 L 10.046875 -12.09375 L 6.71875 -12.09375 L 6.71875 0 Z M 2.734375 0 "/></g></g></g><g fill="#000000" fill-opacity="1"><g transform="translate(428.330265, 160.296807)"><g><path d="M 4.171875 -17.828125 C 3.441406 -17.828125 2.84375 -18.039062 2.375 -18.46875 C 1.914062 -18.90625 1.6875 -19.457031 1.6875 -20.125 C 1.6875 -20.789062 1.914062 -21.335938 2.375 -21.765625 C 2.84375 -22.191406 3.441406 -22.40625 4.171875 -22.40625 C 4.890625 -22.40625 5.484375 -22.191406 5.953125 -21.765625 C 6.421875 -21.335938 6.65625 -20.789062 6.65625 -20.125 C 6.65625 -19.457031 6.421875 -18.90625 5.953125 -18.46875 C 5.484375 -18.039062 4.890625 -17.828125 4.171875 -17.828125 Z M 2.171875 0 L 2.171875 -15.4375 L 6.15625 -15.4375 L 6.15625 0 Z M 2.171875 0 "/></g></g></g><g fill="#000000" fill-opacity="1"><g transform="translate(436.63677, 160.296807)"><g><path d="M 9.578125 0.375 C 8.003906 0.375 6.613281 0.03125 5.40625 -0.65625 C 4.207031 -1.34375 3.257812 -2.296875 2.5625 -3.515625 C 1.875 -4.734375 1.53125 -6.132812 1.53125 -7.71875 C 1.53125 -9.289062 1.875 -10.6875 2.5625 -11.90625 C 3.257812 -13.132812 4.207031 -14.085938 5.40625 -14.765625 C 6.613281 -15.453125 8.003906 -15.796875 9.578125 -15.796875 C 11.546875 -15.796875 13.203125 -15.28125 14.546875 -14.25 C 15.898438 -13.226562 16.765625 -11.816406 17.140625 -10.015625 L 12.9375 -10.015625 C 12.726562 -10.765625 12.316406 -11.347656 11.703125 -11.765625 C 11.097656 -12.191406 10.378906 -12.40625 9.546875 -12.40625 C 8.453125 -12.40625 7.519531 -11.988281 6.75 -11.15625 C 5.976562 -10.332031 5.59375 -9.1875 5.59375 -7.71875 C 5.59375 -6.238281 5.976562 -5.082031 6.75 -4.25 C 7.519531 -3.425781 8.453125 -3.015625 9.546875 -3.015625 C 10.378906 -3.015625 11.097656 -3.222656 11.703125 -3.640625 C 12.316406 -4.054688 12.726562 -4.644531 12.9375 -5.40625 L 17.140625 -5.40625 C 16.765625 -3.664062 15.898438 -2.265625 14.546875 -1.203125 C 13.203125 -0.148438 11.546875 0.375 9.578125 0.375 Z M 9.578125 0.375 "/></g></g></g><g fill="#000000" fill-opacity="1"><g transform="translate(455.30308, 160.296807)"><g><path d="M 7.34375 0.375 C 6.007812 0.375 4.914062 0.160156 4.0625 -0.265625 C 3.21875 -0.691406 2.585938 -1.253906 2.171875 -1.953125 C 1.765625 -2.660156 1.5625 -3.441406 1.5625 -4.296875 C 1.5625 -5.722656 2.117188 -6.878906 3.234375 -7.765625 C 4.359375 -8.660156 6.039062 -9.109375 8.28125 -9.109375 L 12.1875 -9.109375 L 12.1875 -9.484375 C 12.1875 -10.546875 11.882812 -11.320312 11.28125 -11.8125 C 10.6875 -12.3125 9.941406 -12.5625 9.046875 -12.5625 C 8.242188 -12.5625 7.539062 -12.367188 6.9375 -11.984375 C 6.332031 -11.609375 5.957031 -11.046875 5.8125 -10.296875 L 1.921875 -10.296875 C 2.023438 -11.421875 2.40625 -12.394531 3.0625 -13.21875 C 3.71875 -14.050781 4.5625 -14.6875 5.59375 -15.125 C 6.632812 -15.570312 7.796875 -15.796875 9.078125 -15.796875 C 11.273438 -15.796875 13.003906 -15.242188 14.265625 -14.140625 C 15.535156 -13.046875 16.171875 -11.492188 16.171875 -9.484375 L 16.171875 0 L 12.78125 0 L 12.40625 -2.484375 C 11.957031 -1.660156 11.320312 -0.976562 10.5 -0.4375 C 9.675781 0.101562 8.625 0.375 7.34375 0.375 Z M 8.25 -2.734375 C 9.382812 -2.734375 10.269531 -3.109375 10.90625 -3.859375 C 11.539062 -4.609375 11.9375 -5.53125 12.09375 -6.625 L 8.703125 -6.625 C 7.648438 -6.625 6.894531 -6.429688 6.4375 -6.046875 C 5.976562 -5.660156 5.75 -5.191406 5.75 -4.640625 C 5.75 -4.035156 5.976562 -3.566406 6.4375 -3.234375 C 6.894531 -2.898438 7.5 -2.734375 8.25 -2.734375 Z M 8.25 -2.734375 "/></g></g></g><g fill="#000000" fill-opacity="1"><g transform="translate(473.253831, 160.296807)"><g><path d="M 8.890625 0 C 7.273438 0 5.976562 -0.390625 5 -1.171875 C 4.03125 -1.960938 3.546875 -3.363281 3.546875 -5.375 L 3.546875 -12.09375 L 0.90625 -12.09375 L 0.90625 -15.4375 L 3.546875 -15.4375 L 4.015625 -19.5625 L 7.53125 -19.5625 L 7.53125 -15.4375 L 11.703125 -15.4375 L 11.703125 -12.09375 L 7.53125 -12.09375 L 7.53125 -5.34375 C 7.53125 -4.601562 7.691406 -4.09375 8.015625 -3.8125 C 8.335938 -3.53125 8.890625 -3.390625 9.671875 -3.390625 L 11.609375 -3.390625 L 11.609375 0 Z M 8.890625 0 "/></g></g></g><g fill="#000000" fill-opacity="1"><g transform="translate(486.351333, 160.296807)"><g><path d="M 4.171875 -17.828125 C 3.441406 -17.828125 2.84375 -18.039062 2.375 -18.46875 C 1.914062 -18.90625 1.6875 -19.457031 1.6875 -20.125 C 1.6875 -20.789062 1.914062 -21.335938 2.375 -21.765625 C 2.84375 -22.191406 3.441406 -22.40625 4.171875 -22.40625 C 4.890625 -22.40625 5.484375 -22.191406 5.953125 -21.765625 C 6.421875 -21.335938 6.65625 -20.789062 6.65625 -20.125 C 6.65625 -19.457031 6.421875 -18.90625 5.953125 -18.46875 C 5.484375 -18.039062 4.890625 -17.828125 4.171875 -17.828125 Z M 2.171875 0 L 2.171875 -15.4375 L 6.15625 -15.4375 L 6.15625 0 Z M 2.171875 0 "/></g></g></g><g fill="#000000" fill-opacity="1"><g transform="translate(494.657839, 160.296807)"><g><path d="M 9.421875 0.375 C 7.929688 0.375 6.585938 0.03125 5.390625 -0.65625 C 4.203125 -1.34375 3.257812 -2.289062 2.5625 -3.5 C 1.875 -4.707031 1.53125 -6.113281 1.53125 -7.71875 C 1.53125 -9.3125 1.878906 -10.710938 2.578125 -11.921875 C 3.285156 -13.140625 4.234375 -14.085938 5.421875 -14.765625 C 6.617188 -15.453125 7.960938 -15.796875 9.453125 -15.796875 C 10.929688 -15.796875 12.265625 -15.453125 13.453125 -14.765625 C 14.648438 -14.085938 15.59375 -13.140625 16.28125 -11.921875 C 16.976562 -10.710938 17.328125 -9.3125 17.328125 -7.71875 C 17.328125 -6.113281 16.976562 -4.707031 16.28125 -3.5 C 15.59375 -2.289062 14.644531 -1.34375 13.4375 -0.65625 C 12.238281 0.03125 10.898438 0.375 9.421875 0.375 Z M 9.421875 -3.078125 C 10.460938 -3.078125 11.363281 -3.460938 12.125 -4.234375 C 12.894531 -5.015625 13.28125 -6.175781 13.28125 -7.71875 C 13.28125 -9.25 12.894531 -10.398438 12.125 -11.171875 C 11.363281 -11.953125 10.472656 -12.34375 9.453125 -12.34375 C 8.398438 -12.34375 7.492188 -11.953125 6.734375 -11.171875 C 5.972656 -10.398438 5.59375 -9.25 5.59375 -7.71875 C 5.59375 -6.175781 5.972656 -5.015625 6.734375 -4.234375 C 7.492188 -3.460938 8.390625 -3.078125 9.421875 -3.078125 Z M 9.421875 -3.078125 "/></g></g></g><g fill="#000000" fill-opacity="1"><g transform="translate(513.510803, 160.296807)"><g><path d="M 2.015625 0 L 2.015625 -15.4375 L 5.53125 -15.4375 L 5.84375 -12.8125 C 6.320312 -13.726562 7.007812 -14.453125 7.90625 -14.984375 C 8.8125 -15.523438 9.878906 -15.796875 11.109375 -15.796875 C 13.015625 -15.796875 14.492188 -15.191406 15.546875 -13.984375 C 16.609375 -12.785156 17.140625 -11.023438 17.140625 -8.703125 L 17.140625 0 L 13.15625 0 L 13.15625 -8.34375 C 13.15625 -9.664062 12.882812 -10.675781 12.34375 -11.375 C 11.8125 -12.082031 10.972656 -12.4375 9.828125 -12.4375 C 8.710938 -12.4375 7.796875 -12.039062 7.078125 -11.25 C 6.359375 -10.46875 6 -9.375 6 -7.96875 L 6 0 Z M 2.015625 0 "/></g></g></g><g fill="#000000" fill-opacity="1"><g transform="translate(532.425984, 160.296807)"><g><path d="M 8.40625 0.375 C 7.03125 0.375 5.820312 0.148438 4.78125 -0.296875 C 3.75 -0.742188 2.921875 -1.359375 2.296875 -2.140625 C 1.679688 -2.929688 1.3125 -3.847656 1.1875 -4.890625 L 5.1875 -4.890625 C 5.3125 -4.285156 5.648438 -3.769531 6.203125 -3.34375 C 6.753906 -2.914062 7.46875 -2.703125 8.34375 -2.703125 C 9.207031 -2.703125 9.84375 -2.878906 10.25 -3.234375 C 10.65625 -3.585938 10.859375 -3.992188 10.859375 -4.453125 C 10.859375 -5.109375 10.566406 -5.554688 9.984375 -5.796875 C 9.398438 -6.035156 8.59375 -6.269531 7.5625 -6.5 C 6.894531 -6.644531 6.21875 -6.820312 5.53125 -7.03125 C 4.851562 -7.238281 4.226562 -7.503906 3.65625 -7.828125 C 3.082031 -8.148438 2.617188 -8.5625 2.265625 -9.0625 C 1.910156 -9.570312 1.734375 -10.203125 1.734375 -10.953125 C 1.734375 -12.316406 2.28125 -13.460938 3.375 -14.390625 C 4.46875 -15.328125 6 -15.796875 7.96875 -15.796875 C 9.789062 -15.796875 11.242188 -15.367188 12.328125 -14.515625 C 13.421875 -13.671875 14.070312 -12.503906 14.28125 -11.015625 L 10.515625 -11.015625 C 10.285156 -12.148438 9.425781 -12.71875 7.9375 -12.71875 C 7.1875 -12.71875 6.609375 -12.570312 6.203125 -12.28125 C 5.796875 -12 5.59375 -11.640625 5.59375 -11.203125 C 5.59375 -10.742188 5.894531 -10.378906 6.5 -10.109375 C 7.101562 -9.835938 7.898438 -9.585938 8.890625 -9.359375 C 9.972656 -9.109375 10.960938 -8.832031 11.859375 -8.53125 C 12.765625 -8.238281 13.488281 -7.796875 14.03125 -7.203125 C 14.570312 -6.609375 14.84375 -5.765625 14.84375 -4.671875 C 14.863281 -3.710938 14.613281 -2.847656 14.09375 -2.078125 C 13.570312 -1.316406 12.820312 -0.71875 11.84375 -0.28125 C 10.875 0.15625 9.726562 0.375 8.40625 0.375 Z M 8.40625 0.375 "/></g></g></g></svg>