<?xml version="1.0" encoding="UTF-8" standalone="no"?>

<!-- Created with Inkscape (http://www.inkscape.org/) -->

<svg xmlns:rdf="http://www.w3.org/1999/02/22-rdf-syntax-ns#" xmlns="http://www.w3.org/2000/svg" height="48" width="178" version="1.1" xmlns:cc="http://creativecommons.org/ns#" xmlns:dc="http://purl.org/dc/elements/1.1/">

	<metadata>

		<rdf:RDF>

			<cc:Work rdf:about="">

				<dc:format>image/svg+xml</dc:format>

				<dc:type rdf:resource="http://purl.org/dc/dcmitype/StillImage"/>

				<dc:title/>

			</cc:Work>

		</rdf:RDF>

	</metadata>

	<text style="letter-spacing:0px;word-spacing:0px;" font-weight="normal" xml:space="preserve" font-size="14.70118141px" line-height="125%" font-style="normal" y="-2.051755" x="20.130768" font-family="Sans" fill="#ffffff"><tspan y="-2.051755" x="20.130768"/></text>

	<g style="writing-mode:lr-tb;letter-spacing:0px;text-anchor:start;word-spacing:0px;text-align:start;" font-weight="300" fill-opacity="0.70196078" font-size="6.87330818px" line-height="125%" font-stretch="normal" font-variant="normal" font-style="normal" font-family="Museo Sans 300" fill="#FFF">

		<path d="m170.47,7.4578,0.47425,0,0-4.4057,1.732,0,0-0.42614-3.9452,0,0,0.42614,1.7389,0z"/>

		<path d="m173.27,7.4578,0.47426,0,0.26805-3.3816c0.01-0.1429,0.0145-0.2901,0.0146-0.4416,0.00014-0.15149-0.00015-0.2334-0.00086-0.24572h0.0137c0.004,0.013607,0.0338,0.098091,0.0894,0.25345,0.0555,0.15537,0.11283,0.29999,0.17183,0.43387l1.1341,2.4812h0.44676l1.1341-2.4812c0.0587-0.13632,0.11483-0.27951,0.16839-0.42958,0.0536-0.15006,0.0822-0.23139,0.0859-0.244h0.0137c-0.00072,0.011746-0.001,0.091361-0.00086,0.23884,0.00014,0.14749,0.005,0.2924,0.0146,0.43473l0.26806,3.3816h0.47425l-0.3849-4.8319h-0.488l-1.2647,2.8386c-0.0581,0.13288-0.11198,0.26233-0.16152,0.38834-0.0496,0.12601-0.0759,0.1936-0.0791,0.20276h-0.0137c-0.003-0.00916-0.0281-0.07675-0.0756-0.20276s-0.10023-0.25545-0.15808-0.38834l-1.2647-2.8386h-0.49488z"/>

	</g>

	<text style="letter-spacing:0px;word-spacing:0px;" font-weight="normal" xml:space="preserve" font-size="40px" font-style="normal" y="65.218529" x="130.55244" font-family="Sans" line-height="125%" fill="#000000"><tspan x="130.55244" y="65.218529"/></text>

	<g style="letter-spacing:0px;word-spacing:0px;" font-weight="normal" transform="scale(0.98508561,1.0151402)" font-size="39.35454178px" font-style="normal" font-family="Sans" line-height="125%" fill="#FFF">

		<path style="text-align:start;" d="m-0.00001687,28.847,1.6529,0,0-9.6024c-0.00164-0.47306,0.021312-0.93383,0.06887-1.3823,0.047548-0.44846,0.12954-0.87972,0.24596-1.2938,0.53045-1.8619,1.5159-3.3623,2.9565-4.5011,1.4405-1.1388,3.1049-1.7242,4.993-1.7562,2.13,0.06315,3.4877,0.74365,4.0731,2.0415,0.58537,1.2979,0.84117,2.8343,0.7674,4.6093v11.885h1.6529v-12.475c0.04917-2.3514-0.39356-4.2109-1.3282-5.5784-0.934-1.3696-2.656-2.0682-5.1648-2.0977-2.458,0.1156-4.3798,0.8092-5.7654,2.0807-1.3856,1.272-2.2448,2.428-2.5777,3.468h-0.078708c0.00655-0.01064,0.03279-0.16642,0.078708-0.46733,0.045908-0.30088,0.072144-0.68294,0.078708-1.1462v-3.4632h-1.6529z"/>

		<path style="text-align:start;" d="m21.446,23.612c0.07953,1.9595,0.7961,3.4025,2.1497,4.3289,1.3536,0.92646,2.8671,1.3856,4.5405,1.3774,1.6963-0.05976,3.0524-0.47808,4.068-1.255,1.0157-0.77688,1.7449-1.5538,2.1878-2.3306,0.44284-0.77687,0.65321-1.1952,0.63112-1.255h0.07871c-0.0066,0.0074-0.03281,0.16972-0.07871,0.48701-0.04593,0.3173-0.07216,0.74527-0.07871,1.2839v2.5974h1.6529v-12.711c-0.0074-2.4621-0.60263-4.3166-1.7857-5.5637-1.1831-1.247-2.9098-1.8718-5.18-1.8742-2.1538,0.090207-3.7985,0.45095-4.934,1.0822-1.1355,0.63132-1.7078,0.99207-1.7168,1.0822l0.9445,1.338c0.02049-0.07869,0.53046-0.39352,1.5299-0.9445,0.99942-0.55094,2.3653-0.86577,4.0977-0.9445,1.602-0.02868,2.8941,0.40258,3.8764,1.2938,0.9822,0.89122,1.4872,2.4145,1.5151,4.57v0.66902h-1.2987c-1.2533-0.04031-2.8265,0.04908-4.7196,0.26819-1.8931,0.21913-3.5917,0.80993-5.0956,1.7724-1.504,0.96248-2.2988,2.5386-2.3846,4.7283zm1.7316-0.11806c0.06777-1.6738,0.72804-2.8738,1.9808-3.6002,1.2528-0.72634,2.6914-1.1685,4.3158-1.3264,1.6244-0.15789,3.0281-0.22105,4.2109-0.18948h1.2593v1.0626c-0.01231,2.0522-0.5977,3.9297-1.7562,5.6325-1.1585,1.7029-2.8163,2.6064-4.9734,2.7105-1.6734-0.04837-2.9311-0.50258-3.7731-1.3626-0.84202-0.86005-1.2634-1.8357-1.2642-2.927z"/>

		<path style="text-align:start;" d="m43.275,28.847,1.6529,0,0-9.6024c-0.0016-0.47306,0.02131-0.93383,0.06887-1.3823,0.04755-0.44846,0.12954-0.87972,0.24596-1.2938,0.47552-1.693,1.3446-3.1573,2.6072-4.3929,1.2626-1.2355,2.781-1.8832,4.5552-1.9431,2.0939,0.06889,3.4353,0.76742,4.024,2.0956,0.58865,1.3282,0.84773,2.8729,0.77724,4.6339v11.885h1.6529v-9.6024c-0.000839-0.56898,0.03032-1.1035,0.09347-1.6037,0.06311-0.50011,0.16314-0.97564,0.30007-1.4266,0.46321-1.5922,1.3175-2.9729,2.5629-4.142s2.6998-1.7824,4.3634-1.8398c2.03,0.04921,3.3713,0.70839,4.0239,1.9775,0.65259,1.2692,0.95102,2.8532,0.8953,4.752v11.885h1.6529v-12.475c0.04342-2.3686-0.41735-4.233-1.3823-5.5932-0.96502-1.3602-2.695-2.0538-5.1898-2.0808-1.7234,0.050852-3.2549,0.59853-4.5946,1.643s-2.3006,2.2809-2.8827,3.7091h-0.07871c-0.201-1.756-0.799-3.086-1.794-3.99-0.994-0.9044-2.469-1.3586-4.422-1.3627-1.597,0.0467-3.117,0.6026-4.56,1.6677-1.4438,1.065-2.4424,2.3588-2.9958,3.8813h-0.07871c0.0066-0.01064,0.03279-0.16642,0.07871-0.46733,0.04591-0.30088,0.07214-0.68294,0.07871-1.1462v-3.4632h-1.6529z"/>

		<path style="text-align:start;" d="m78.023,19.047c0.07625,3.1655,1.0749,5.6596,2.9958,7.4822,1.921,1.8226,4.3068,2.7523,7.1575,2.7892,2.1513-0.11314,3.8501-0.56571,5.0963-1.3577,1.2462-0.792,1.8824-1.2446,1.9087-1.3577l-0.90514-1.3774c-0.01806,0.10331-0.56245,0.51652-1.6332,1.2397-1.0708,0.72313-2.5597,1.1363-4.4667,1.2397-2.3481-0.01722-4.3224-0.79938-5.9228-2.3465s-2.4334-3.7558-2.499-6.6262h15.781c0.0033-0.01721,0.01638-0.14019,0.03935-0.36894,0.02294-0.22874,0.03605-0.45994,0.03935-0.69362-0.000019-2.4572-0.66904-4.5478-2.0071-6.272s-3.3451-2.6244-6.0212-2.7007c-2.6023,0.015598-4.8258,0.90926-6.6705,2.681-1.8447,1.7718-2.8089,4.3281-2.8925,7.6691zm1.8496-1.8496c0.40338-2.3047,1.3184-4.0412,2.7449-5.2095,1.4266-1.1683,3.0696-1.7537,4.9291-1.7562,1.6807-0.0098,3.1204,0.55098,4.3191,1.6824,1.1986,1.1314,1.8709,2.8925,2.0169,5.2833z"/>

	</g>

	<g style="letter-spacing:0px;word-spacing:0px;" font-weight="normal" transform="scale(0.94327271,1.0601388)" font-size="37.73090744px" font-style="normal" font-family="Sans" line-height="125%" fill="#88b9db">

		<path style="text-align:start;" d="m-0.13549,42.192,3.0411,0c0.7408-0.005,1.3529-0.216,1.8363-0.633,0.4833-0.418,0.7337-1.012,0.751-1.783-0.0051-0.53-0.1359-0.985-0.3924-1.366-0.2564-0.381-0.608-0.637-1.0545-0.768v-0.02453c0.3352-0.166,0.5998-0.408,0.794-0.726,0.1941-0.317,0.2932-0.7,0.2973-1.149-0.012-0.681-0.2301-1.211-0.6545-1.591-0.4243-0.381-0.9828-0.574-1.6753-0.58h-2.943zm0.8461-4.8804,0-2.9798,2.0846,0c0.46367,0.0061,0.82387,0.14102,1.0806,0.40466,0.25674,0.26365,0.38703,0.61926,0.39086,1.0668-0.00639,0.45448-0.14077,0.81775-0.40313,1.0898-0.26237,0.27208-0.6144,0.41156-1.0561,0.41845zm0,4.1202,0-3.3844,2.195,0c0.51093,0.0066,0.9207,0.16197,1.2293,0.46597,0.3086,0.30401,0.46699,0.71684,0.47517,1.2385-0.00537,0.52064-0.15712,0.92939-0.45524,1.2262-0.29813,0.29685-0.71046,0.44809-1.237,0.45371z"/>

		<path style="text-align:start;" d="m7.2215,39.948c-0.0046,0.80242,0.15788,1.4017,0.48743,1.798,0.32955,0.39623,0.85377,0.59396,1.5727,0.59319,0.68081-0.02734,1.2229-0.21178,1.6263-0.55334,0.40338-0.34156,0.66651-0.67622,0.78939-1.004h0.02453c-0.001,0.0036-0.0051,0.05161-0.01226,0.14408-0.0072,0.09248-0.01125,0.20795-0.01226,0.34641v0.91968h0.80932v-6.168h-0.83384v2.9552c-0.0069,0.69206-0.21076,1.2883-0.61159,1.7888-0.40083,0.50046-0.95724,0.76257-1.6692,0.78633-0.576-0.016-0.9474-0.199-1.1142-0.55-0.1669-0.352-0.2409-0.777-0.2223-1.277v-3.7032h-0.83384z"/>

		<path style="text-align:start;" d="m13.597,44.399c0.0051,0.01532,0.10525,0.07664,0.30043,0.18394,0.19518,0.10729,0.45473,0.16861,0.77866,0.18394,0.4136-0.0046,0.77278-0.12109,1.0776-0.34948,0.30477-0.22839,0.53826-0.54108,0.70049-0.93807l3.0411-7.4555h-0.90742l-1.778,4.5003c-0.06234,0.1612-0.11241,0.30784-0.15021,0.43991-0.03781,0.13208-0.05723,0.20208-0.05825,0.20999h-0.02452c-0.0015-0.0079-0.023-0.07792-0.06438-0.20999-0.04139-0.13208-0.0935-0.27871-0.15634-0.43991l-1.8148-4.5003h-0.91968l2.5751,6.1189-0.38013,0.87063c-0.12212,0.28868-0.27948,0.52677-0.4721,0.71428s-0.42356,0.28459-0.69282,0.29123c-0.20233-0.01175-0.374-0.05876-0.51502-0.14102s-0.21459-0.12927-0.22072-0.14102z"/>

		<path style="text-align:start;" d="m20.06,43.381,0.71122,0,0.90742-2.195-0.91968,0z"/>

		<path style="text-align:start;" d="m26.53,41.235c0.0011,0.01363,0.10658,0.109,0.31655,0.28612s0.51805,0.35425,0.92422,0.53137,0.90408,0.2725,1.4937,0.28612c0.81698-0.01661,1.4546-0.24397,1.9129-0.6821,0.4583-0.43812,0.69129-0.98738,0.69896-1.6478-0.02242-0.69238-0.24659-1.2183-0.67252-1.5776-0.42593-0.35937-0.91911-0.6469-1.4795-0.86258-0.56043-0.21567-1.0536-0.45415-1.4795-0.71543-0.42593-0.26127-0.6501-0.64-0.67251-1.1362,0.0066-0.39443,0.17116-0.73676,0.49356-1.027,0.3224-0.2902,0.76282-0.44246,1.3213-0.45677,0.57224,0.03066,1.028,0.15329,1.3673,0.36787,0.33925,0.2146,0.51297,0.33722,0.52115,0.36787l0.41692-0.71122c-0.0026-0.03474-0.19978-0.17371-0.59166-0.41692-0.39189-0.2432-0.96311-0.38217-1.7137-0.41692-0.80932,0.01917-1.4562,0.25062-1.9405,0.69436-0.48437,0.44375-0.73268,0.98483-0.74494,1.6232,0.02242,0.65282,0.24659,1.1505,0.67252,1.4931,0.42592,0.34262,0.9191,0.62306,1.4795,0.84131,0.56043,0.21827,1.0536,0.46728,1.4795,0.74705,0.42592,0.27977,0.65009,0.68322,0.67252,1.2103-0.01252,0.47006-0.18062,0.83589-0.50429,1.0975-0.32368,0.2616-0.72783,0.39444-1.2124,0.39853-0.68951-0.03934-1.2357-0.19671-1.6386-0.4721-0.40287-0.27539-0.60878-0.43276-0.61772-0.4721z"/>

		<path style="text-align:start;" d="m33.08,39.114c0.01942,0.96592,0.327,1.741,0.92274,2.3253,0.59574,0.58425,1.3632,0.88417,2.3023,0.89975,0.70125-0.03577,1.2546-0.17883,1.66-0.42918,0.40542-0.25036,0.61235-0.39342,0.62078-0.42918l-0.38013-0.63764c-0.0077,0.03117-0.17934,0.15584-0.51502,0.374-0.33569,0.21817-0.7894,0.34284-1.3611,0.374-0.65528-0.0028-1.2086-0.21178-1.66-0.62692-0.45141-0.41513-0.69513-1.0196-0.73114-1.8133h4.7333c0.001-0.0087,0.0051-0.06182,0.01226-0.15941,0.0071-0.09758,0.01123-0.18751,0.01226-0.26977-0.000772-0.78913-0.2169-1.4549-0.64837-1.9972-0.43149-0.54235-1.0737-0.82489-1.9267-0.84764-0.85633,0.0084-1.5716,0.29507-2.1459,0.8599-0.57429,0.56484-0.87267,1.3573-0.89515,2.3774zm0.89515-0.64991c0.10985-0.62052,0.35918-1.0901,0.74801-1.4086,0.38882-0.31856,0.84661-0.47848,1.3734-0.47977,0.47235-0.0018,0.87344,0.15201,1.2032,0.46137,0.3298,0.30938,0.51323,0.78505,0.55028,1.427z"/>

		<path style="text-align:start;" d="m40.226,40.732c0.02708,0.65297,0.19977,1.073,0.51809,1.26,0.31831,0.187,0.61976,0.26977,0.90435,0.24831,0.08251-0.001,0.15353-0.0051,0.21306-0.01226,0.05952-0.0072,0.09069-0.01124,0.0935-0.01226v-0.74801c-0.0018,0.000512-0.02274,0.0026-0.06285,0.0061-0.04011,0.0036-0.08865,0.0056-0.14562,0.0061-0.1681,0.01175-0.3224-0.04241-0.4629-0.16248-0.14051-0.12007-0.2151-0.37656-0.22379-0.76946v-6.9773h-0.83384z"/>

		<path style="text-align:start;" d="m43.243,40.732c0.02708,0.65297,0.19977,1.073,0.51809,1.26,0.31831,0.187,0.61976,0.26977,0.90435,0.24831,0.08251-0.001,0.15353-0.0051,0.21306-0.01226,0.05952-0.0072,0.09069-0.01124,0.0935-0.01226v-0.74801c-0.0018,0.000512-0.02274,0.0026-0.06285,0.0061-0.04011,0.0036-0.08865,0.0056-0.14562,0.0061-0.1681,0.01175-0.3224-0.04241-0.4629-0.16248-0.14051-0.12007-0.2151-0.37656-0.22379-0.76946v-6.9773h-0.83384z"/>

		<path style="text-align:start;" d="m45.758,43.381,0.71122,0,0.90742-2.195-0.91968,0z"/>

		<path style="text-align:start;" d="m52.866,42.192,2.7836,0c1.3123-0.0082,2.3572-0.38422,3.1346-1.1281,0.77738-0.74392,1.1754-1.8067,1.194-3.1882-0.01866-1.3703-0.41667-2.4279-1.194-3.1729-0.77739-0.74493-1.8222-1.122-3.1346-1.1312h-2.7836zm0.8461-0.76027,0-7.0999,1.8516,0c1.0699,0.0044,1.9221,0.30836,2.5567,0.91202,0.63457,0.60367,0.95952,1.4809,0.97486,2.6318-0.01457,1.1568-0.33799,2.0376-0.97026,2.6425-0.63229,0.60494-1.4861,0.90946-2.5613,0.91355z"/>

		<path style="text-align:start;" d="m61.674,34.614,0.87063,0,0-1.0423-0.87063,0zm0.02452,7.5782,0.83384,0,0-6.168-0.83384,0z"/>

		<path style="text-align:start;" d="m64.046,41.444c0.0015,0.0373,0.19466,0.18649,0.5794,0.44758,0.38473,0.26109,0.95186,0.41028,1.7014,0.44758,0.62972-0.0092,1.1361-0.17167,1.519-0.48743,0.38294-0.31576,0.57965-0.72961,0.59013-1.2416-0.01731-0.49812-0.19039-0.87832-0.51924-1.1406-0.32885-0.26226-0.70963-0.47117-1.1423-0.62672-0.4327-0.15554-0.81347-0.3223-1.1423-0.50027-0.32885-0.17796-0.50193-0.4317-0.51924-0.76122,0.012-0.34028,0.1382-0.58552,0.3786-0.73574,0.24039-0.15021,0.52294-0.22378,0.84764-0.22072,0.50965,0.02351,0.89438,0.11752,1.1542,0.28204,0.2598,0.16453,0.39009,0.25854,0.39086,0.28204l0.379-0.638c0.002-0.0281-0.15226-0.1405-0.4629-0.33722-0.31065-0.1967-0.78991-0.30911-1.4378-0.33722-0.57608,0.0021-1.0671,0.14818-1.473,0.43838-0.40594,0.29022-0.61797,0.71225-0.63611,1.2661,0.01731,0.49229,0.19039,0.86961,0.51924,1.132,0.32885,0.26237,0.70962,0.47262,1.1423,0.63075,0.43269,0.15814,0.81346,0.327,1.1423,0.50659,0.32884,0.1796,0.50192,0.43276,0.51924,0.7595-0.01022,0.32521-0.13387,0.56995-0.37094,0.73421-0.23708,0.16427-0.52626,0.24653-0.86756,0.24678-0.58093-0.03117-1.0316-0.15583-1.3519-0.374-0.32036-0.21817-0.48283-0.34283-0.48743-0.374z"/>

		<path style="text-align:start;" d="m69.556,39.114c0.02069,0.97128,0.33185,1.7479,0.93348,2.3299,0.60162,0.58195,1.3696,0.88034,2.3038,0.89516,0.5238-0.01196,0.96403-0.09568,1.3207-0.25115,0.35666-0.15548,0.62613-0.31095,0.80841-0.46642,0.18226-0.15547,0.2737-0.23919,0.27431-0.25115l-0.38013-0.64991c-0.0041,0.03628-0.17679,0.18138-0.51809,0.43531-0.34131,0.25393-0.82669,0.39904-1.4562,0.43532-0.69666-0.01277-1.2715-0.24474-1.7244-0.69589-0.45294-0.45115-0.68746-1.0449-0.70356-1.7811,0.01584-0.74698,0.2478-1.3437,0.69589-1.7903,0.44809-0.44655,1.0173-0.67545,1.7075-0.68669,0.5633,0.03117,1.0032,0.15584,1.3197,0.374,0.31652,0.21817,0.47746,0.34284,0.48283,0.374l0.42918-0.62538c0.000249-0.03678-0.18726-0.18393-0.56254-0.44145-0.37529-0.2575-0.93987-0.40465-1.6937-0.44145-0.92888,0.0161-1.6953,0.31806-2.2992,0.90588-0.60392,0.58783-0.91661,1.365-0.93807,2.3314z"/>

		<path style="text-align:start;" d="m76.629,39.948c-0.0046,0.80242,0.15788,1.4017,0.48743,1.798,0.32955,0.39623,0.85377,0.59396,1.5727,0.59319,0.68081-0.02734,1.2229-0.21178,1.6263-0.55334,0.40338-0.34156,0.66651-0.67622,0.78939-1.004h0.02452c-0.001,0.0036-0.0051,0.05161-0.01226,0.14408-0.0072,0.09248-0.01125,0.20795-0.01226,0.34641v0.91968h0.80932v-6.168h-0.83384v2.9552c-0.0069,0.69206-0.21076,1.2883-0.61159,1.7888-0.40083,0.50046-0.95724,0.76257-1.6692,0.78633-0.57608-0.01558-0.94753-0.19901-1.1143-0.55028-0.16682-0.35126-0.24091-0.77687-0.22226-1.2768v-3.7032h-0.83384z"/>

		<path style="text-align:start;" d="m83.421,41.444c0.0015,0.0373,0.19466,0.18649,0.5794,0.44758,0.38473,0.26109,0.95187,0.41028,1.7014,0.44758,0.62972-0.0092,1.1361-0.17167,1.519-0.48743,0.38294-0.31576,0.57965-0.72961,0.59013-1.2416-0.01731-0.49812-0.19039-0.87832-0.51924-1.1406-0.32885-0.26226-0.70962-0.47117-1.1423-0.62672-0.4327-0.15554-0.81347-0.3223-1.1423-0.50027-0.32885-0.17796-0.50193-0.4317-0.51924-0.76122,0.01201-0.34028,0.1382-0.58552,0.3786-0.73574,0.24039-0.15021,0.52294-0.22378,0.84764-0.22072,0.50965,0.02351,0.89438,0.11752,1.1542,0.28204,0.25981,0.16453,0.39009,0.25854,0.39086,0.28204l0.38013-0.63764c0.002-0.0281-0.15226-0.1405-0.4629-0.33722-0.31065-0.1967-0.78991-0.30911-1.4378-0.33722-0.57608,0.0021-1.0671,0.14818-1.473,0.43838-0.40594,0.29022-0.61797,0.71225-0.63611,1.2661,0.01731,0.49229,0.19038,0.86961,0.51924,1.132,0.32885,0.26237,0.70962,0.47262,1.1423,0.63075,0.43269,0.15814,0.81346,0.327,1.1423,0.50659,0.32884,0.1796,0.50192,0.43276,0.51924,0.7595-0.01022,0.32521-0.13387,0.56995-0.37094,0.73421-0.23708,0.16427-0.52626,0.24653-0.86756,0.24678-0.58093-0.03117-1.0316-0.15583-1.3519-0.374-0.32036-0.21817-0.48283-0.34283-0.48743-0.374z"/>

		<path style="text-align:start;" d="m88.858,41.444c0.0015,0.0373,0.19466,0.18649,0.5794,0.44758,0.38473,0.26109,0.95187,0.41028,1.7014,0.44758,0.62972-0.0092,1.1361-0.17167,1.519-0.48743,0.38294-0.31576,0.57965-0.72961,0.59013-1.2416-0.01731-0.49812-0.19039-0.87832-0.51924-1.1406-0.32885-0.26226-0.70962-0.47117-1.1423-0.62672-0.4327-0.15554-0.81347-0.3223-1.1423-0.50027-0.32885-0.17796-0.50193-0.4317-0.51924-0.76122,0.01201-0.34028,0.13821-0.58552,0.3786-0.73574,0.24039-0.15021,0.52294-0.22378,0.84764-0.22072,0.50965,0.02351,0.89438,0.11752,1.1542,0.28204,0.2598,0.16453,0.39009,0.25854,0.39086,0.28204l0.38013-0.63764c0.002-0.0281-0.15226-0.1405-0.4629-0.33722-0.31065-0.1967-0.7899-0.30911-1.4378-0.33722-0.57608,0.0021-1.0671,0.14818-1.473,0.43838-0.40594,0.29022-0.61797,0.71225-0.63611,1.2661,0.01731,0.49229,0.19038,0.86961,0.51924,1.132,0.32885,0.26237,0.70962,0.47262,1.1423,0.63075,0.43269,0.15814,0.81347,0.327,1.1423,0.50659,0.32884,0.1796,0.50192,0.43276,0.51924,0.7595-0.01022,0.32521-0.13387,0.56995-0.37094,0.73421-0.23708,0.16427-0.52626,0.24653-0.86756,0.24678-0.58093-0.03117-1.0316-0.15583-1.3519-0.374-0.32036-0.21817-0.48283-0.34283-0.48743-0.374z"/>

		<path style="text-align:start;" d="m98.348,42.192,2.7836,0c1.3123-0.0082,2.3572-0.38422,3.1346-1.1281,0.77738-0.74392,1.1754-1.8067,1.194-3.1882-0.0187-1.3703-0.41667-2.4279-1.194-3.1729-0.77739-0.74493-1.8222-1.122-3.1346-1.1312h-2.7836zm0.8461-0.76027,0-7.0999,1.8516,0c1.0699,0.0044,1.9221,0.30836,2.5567,0.91202,0.63457,0.60367,0.95953,1.4809,0.97486,2.6318-0.0146,1.1568-0.33799,2.0376-0.97026,2.6425-0.63229,0.60494-1.486,0.90946-2.5613,0.91355z"/>

		<path style="text-align:start;" d="m106.73,39.077c0.0232,0.95136,0.34155,1.728,0.95493,2.3299,0.61337,0.60188,1.3823,0.91253,2.3069,0.93194,0.92453-0.01942,1.6935-0.33006,2.3069-0.93194,0.61337-0.60188,0.93168-1.3785,0.95494-2.3299-0.0233-0.9327-0.34157-1.6945-0.95494-2.2854-0.61338-0.59089-1.3823-0.89591-2.3069-0.91508-0.92453,0.01917-1.6935,0.32419-2.3069,0.91508-0.61338,0.5909-0.93169,1.3527-0.95493,2.2854zm0.85836,0c0.0174-0.71326,0.2524-1.2947,0.70509-1.7443,0.45268-0.44962,1.0188-0.68158,1.6983-0.69589,0.67954,0.01431,1.2456,0.24628,1.6983,0.69589,0.45268,0.44963,0.68771,1.0311,0.70509,1.7443-0.0174,0.73242-0.25241,1.3307-0.70509,1.7949-0.45269,0.46418-1.0188,0.70381-1.6983,0.71888-0.67954-0.01507-1.2457-0.2547-1.6983-0.71888-0.45269-0.46418-0.68772-1.0625-0.70509-1.7949z"/>

		<path style="text-align:start;" d="m114.8,42.192,0.83384,0,0-2.9184c-0.00025-0.14153,0.006-0.28152,0.0199-0.41999,0.0135-0.13846,0.0355-0.27232,0.0659-0.40159,0.13412-0.4887,0.37783-0.9092,0.73115-1.2615,0.3533-0.35228,0.78402-0.53673,1.2922-0.55334,0.56381,0.0184,0.92606,0.20847,1.0868,0.5702,0.16068,0.36174,0.2317,0.7848,0.21306,1.2692v3.7155h0.83384v-2.9184c-0.00077-0.16528,0.007-0.32214,0.023-0.47057,0.0161-0.14842,0.0452-0.28995,0.0874-0.42458,0.12415-0.46954,0.3602-0.87318,0.70816-1.2109,0.34793-0.33772,0.76179-0.5145,1.2416-0.53035,0.54925,0.0138,0.91303,0.19467,1.0914,0.54261,0.17831,0.34795,0.26006,0.7802,0.24525,1.2967v3.7155h0.83384v-3.924c0.008-0.76486-0.14613-1.3535-0.4629-1.7658-0.31679-0.41232-0.84509-0.62078-1.5849-0.62538-0.52985,0.01227-0.99684,0.16555-1.401,0.45984-0.40416,0.2943-0.69334,0.65604-0.86757,1.0852h-0.0245c-0.0889-0.50965-0.28817-0.89438-0.59779-1.1542-0.30963-0.2598-0.74801-0.39009-1.3151-0.39086-0.49306,0.01278-0.94779,0.1681-1.3642,0.46597-0.41642,0.29788-0.7056,0.66166-0.86757,1.0914h-0.0245c0.001-0.0036,0.005-0.0516,0.0123-0.14408,0.007-0.09247,0.0112-0.20794,0.0123-0.34641v-0.91968h-0.82158z"/>

		<path style="text-align:start;" d="m125.53,40.512c0.023,0.61261,0.24371,1.0704,0.66216,1.3734,0.41846,0.30298,0.89669,0.45422,1.4347,0.45371,0.51184-0.0165,0.91877-0.13201,1.2208-0.34653,0.30202-0.21452,0.5182-0.42903,0.64855-0.64355,0.13034-0.21452,0.19392-0.33002,0.19075-0.34652h0.0245c-0.001,0.0023-0.005,0.04982-0.0123,0.14255-0.007,0.09274-0.0113,0.21689-0.0123,0.37247v0.67443h0.79705v-3.9485c-0.003-0.77457-0.20208-1.3621-0.59626-1.7627-0.39419-0.40056-0.96388-0.60187-1.7091-0.60392-0.69768,0.02913-1.2367,0.14562-1.6171,0.34948-0.38039,0.20387-0.57301,0.32036-0.57787,0.34948l0.3924,0.63764c0.009-0.02452,0.17193-0.12262,0.48896-0.2943,0.31704-0.17167,0.73447-0.26977,1.2523-0.2943,0.45013-0.0079,0.81596,0.10909,1.0975,0.35101,0.28152,0.24193,0.42663,0.6563,0.43532,1.2431v0.15941h-0.34335c-0.38248-0.01226-0.86692,0.01772-1.4533,0.08992-0.5864,0.07221-1.1135,0.26024-1.5814,0.56407-0.46787,0.30384-0.71523,0.79706-0.7421,1.4797zm0.85836-0.04905c0.0179-0.44576,0.19734-0.76821,0.53819-0.96737,0.34084-0.19915,0.73551-0.32268,1.184-0.3706,0.44848-0.04791,0.84315-0.06789,1.184-0.05995h0.35561v0.26977c-0.005,0.56228-0.1727,1.0778-0.50276,1.5466-0.33007,0.46878-0.79195,0.71761-1.3856,0.74647-0.45959-0.01252-0.80344-0.13463-1.0316-0.36634-0.22814-0.23171-0.34207-0.4979-0.34182-0.79859z"/>

		<path style="text-align:start;" d="m132.38,34.614,0.87063,0,0-1.0423-0.87063,0zm0.0245,7.5782,0.83384,0,0-6.168-0.83384,0z"/>

		<path style="text-align:start;" d="m135.25,42.192,0.83384,0,0-2.9552c-0.00051-0.1474,0.007-0.29097,0.0215-0.43072,0.0148-0.13974,0.0404-0.27411,0.0766-0.40313,0.15098-0.51783,0.42842-0.93526,0.83231-1.2523,0.40389-0.31703,0.87446-0.48002,1.4117-0.48896,0.57607,0.01559,0.94752,0.19901,1.1143,0.55027,0.16682,0.35127,0.2409,0.77688,0.22226,1.2768v3.7032h0.83384v-3.924c0.009-0.76486-0.14409-1.3535-0.45984-1.7658-0.31576-0.41232-0.84917-0.62078-1.6002-0.62538-0.72732,0.02964-1.2929,0.21868-1.6968,0.56714-0.40389,0.34846-0.65987,0.67852-0.76793,0.99019h-0.0245c0.001-0.0036,0.005-0.0516,0.0123-0.14408,0.007-0.09247,0.0112-0.20794,0.0123-0.34641v-0.91968h-0.82158z"/>

		<path style="text-align:start;" d="m146.08,42.192,0.8461,0,0-6.2048c-0.003-0.24703-0.0153-0.4979-0.0368-0.7526-0.0215-0.25469-0.0337-0.39213-0.0368-0.41232h0.0245c0.0112,0.02172,0.093,0.16223,0.24525,0.42152,0.15225,0.2593,0.30758,0.50711,0.46597,0.74341l4.4022,6.2048h0.82158v-8.6205h-0.84611v6.2048c0.003,0.24704,0.0153,0.4979,0.0368,0.7526s0.0337,0.39214,0.0368,0.41232h-0.0245c-0.0113-0.02171-0.093-0.16222-0.24525-0.42152-0.15226-0.2593-0.30758-0.5071-0.46597-0.74341l-4.4022-6.2048h-0.82158z"/>

		<path style="text-align:start;" d="m154.58,40.512c0.023,0.61261,0.24372,1.0704,0.66217,1.3734,0.41845,0.30298,0.89669,0.45422,1.4347,0.45371,0.51184-0.0165,0.91877-0.13201,1.2208-0.34653,0.30201-0.21452,0.51819-0.42903,0.64854-0.64355,0.13034-0.21452,0.19393-0.33002,0.19075-0.34652h0.0245c-0.001,0.0023-0.005,0.04982-0.0123,0.14255-0.007,0.09274-0.0112,0.21689-0.0123,0.37247v0.67443h0.79706v-3.9485c-0.003-0.77457-0.20208-1.3621-0.59626-1.7627-0.39419-0.40056-0.96388-0.60187-1.7091-0.60392-0.69768,0.02913-1.2367,0.14562-1.6171,0.34948-0.38039,0.20387-0.57302,0.32036-0.57787,0.34948l0.3924,0.63764c0.009-0.02452,0.17192-0.12262,0.48896-0.2943,0.31703-0.17167,0.73446-0.26977,1.2523-0.2943,0.45012-0.0079,0.81595,0.10909,1.0975,0.35101,0.28152,0.24193,0.42662,0.6563,0.43531,1.2431v0.15941h-0.34334c-0.38249-0.01226-0.86693,0.01772-1.4533,0.08992-0.5864,0.07221-1.1135,0.26024-1.5814,0.56407-0.46786,0.30384-0.71523,0.79706-0.7421,1.4797zm0.85837-0.04905c0.0179-0.44576,0.19733-0.76821,0.53818-0.96737,0.34085-0.19915,0.73552-0.32268,1.184-0.3706,0.44849-0.04791,0.84315-0.06789,1.184-0.05995h0.3556v0.26977c-0.005,0.56228-0.17269,1.0778-0.50275,1.5466-0.33007,0.46878-0.79195,0.71761-1.3856,0.74647-0.45959-0.01252-0.80345-0.13463-1.0316-0.36634-0.22813-0.23171-0.34207-0.4979-0.34181-0.79859z"/>

		<path style="text-align:start;" d="m161.45,42.192,0.83385,0,0-2.9184c-0.00026-0.14153,0.006-0.28152,0.0199-0.41999,0.0135-0.13846,0.0355-0.27232,0.0659-0.40159,0.13412-0.4887,0.37784-0.9092,0.73115-1.2615,0.35331-0.35228,0.78402-0.53673,1.2922-0.55334,0.56381,0.0184,0.92606,0.20847,1.0868,0.5702,0.16068,0.36174,0.2317,0.7848,0.21306,1.2692v3.7155h0.83384v-2.9184c-0.00077-0.16528,0.007-0.32214,0.023-0.47057,0.0161-0.14842,0.0452-0.28995,0.0874-0.42458,0.12415-0.46954,0.3602-0.87318,0.70816-1.2109,0.34793-0.33772,0.76179-0.5145,1.2416-0.53035,0.54925,0.0138,0.91303,0.19467,1.0914,0.54261,0.1783,0.34795,0.26005,0.7802,0.24524,1.2967v3.7155h0.83385v-3.924c0.008-0.76486-0.14614-1.3535-0.46291-1.7658-0.31679-0.41232-0.84509-0.62078-1.5849-0.62538-0.52985,0.01227-0.99684,0.16555-1.401,0.45984-0.40416,0.2943-0.69334,0.65604-0.86756,1.0852h-0.0245c-0.0889-0.50965-0.28817-0.89438-0.59779-1.1542-0.30963-0.2598-0.74801-0.39009-1.3151-0.39086-0.49306,0.01278-0.94779,0.1681-1.3642,0.46597-0.41642,0.29788-0.7056,0.66166-0.86757,1.0914h-0.0245c0.001-0.0036,0.005-0.0516,0.0123-0.14408,0.007-0.09247,0.0112-0.20794,0.0123-0.34641v-0.91968h-0.82158z"/>

		<path style="text-align:start;" d="m172.25,39.114c0.0194,0.96592,0.327,1.741,0.92275,2.3253,0.59574,0.58425,1.3632,0.88417,2.3023,0.89975,0.70125-0.03577,1.2546-0.17883,1.66-0.42918,0.40542-0.25036,0.61235-0.39342,0.62078-0.42918l-0.38013-0.63764c-0.008,0.03117-0.17934,0.15584-0.51502,0.374-0.33569,0.21817-0.7894,0.34284-1.3611,0.374-0.65527-0.0028-1.2086-0.21178-1.66-0.62692-0.45141-0.41513-0.69512-1.0196-0.73114-1.8133h4.7333c0.001-0.0087,0.005-0.06182,0.0123-0.15941,0.007-0.09758,0.0112-0.18751,0.0123-0.26977-0.00077-0.78913-0.21689-1.4549-0.64837-1.9972-0.43149-0.54235-1.0737-0.82489-1.9267-0.84764-0.85632,0.0084-1.5716,0.29507-2.1459,0.8599-0.57429,0.56484-0.87268,1.3573-0.89516,2.3774zm0.89516-0.64991c0.10984-0.62052,0.35918-1.0901,0.748-1.4086,0.38882-0.31856,0.84661-0.47848,1.3734-0.47977,0.47235-0.0018,0.87343,0.15201,1.2032,0.46137,0.3298,0.30938,0.51322,0.78505,0.55027,1.427z"/>

		<path style="text-align:start;" d="m178.96,41.444c0.002,0.0373,0.19467,0.18649,0.5794,0.44758s0.95186,0.41028,1.7014,0.44758c0.62973-0.0092,1.1361-0.17167,1.519-0.48743,0.38294-0.31576,0.57965-0.72961,0.59013-1.2416-0.0173-0.49812-0.1904-0.87832-0.51924-1.1406-0.32885-0.26226-0.70963-0.47117-1.1423-0.62672-0.4327-0.15554-0.81347-0.3223-1.1423-0.50027-0.32885-0.17796-0.50193-0.4317-0.51923-0.76122,0.012-0.34028,0.1382-0.58552,0.3786-0.73574,0.24039-0.15021,0.52294-0.22378,0.84764-0.22072,0.50965,0.02351,0.89438,0.11752,1.1542,0.28204,0.25981,0.16453,0.3901,0.25854,0.39087,0.28204l0.38013-0.63764c0.002-0.0281-0.15226-0.1405-0.4629-0.33722-0.31065-0.1967-0.78991-0.30911-1.4378-0.33722-0.57608,0.0021-1.0671,0.14818-1.473,0.43838-0.40593,0.29022-0.61797,0.71225-0.63611,1.2661,0.0173,0.49229,0.19039,0.86961,0.51924,1.132,0.32884,0.26237,0.70962,0.47262,1.1423,0.63075,0.4327,0.15814,0.81347,0.327,1.1423,0.50659,0.32885,0.1796,0.50193,0.43276,0.51924,0.7595-0.0102,0.32521-0.13387,0.56995-0.37094,0.73421-0.23708,0.16427-0.52626,0.24653-0.86756,0.24678-0.58094-0.03117-1.0316-0.15583-1.3519-0.374-0.32036-0.21817-0.48283-0.34283-0.48743-0.374z"/>

	</g>

	<g style="writing-mode:lr-tb;letter-spacing:0px;text-anchor:start;word-spacing:0px;text-align:start;" font-weight="normal" transform="scale(0.98508561,1.0151402)" line-height="125%" font-stretch="normal" font-size="39.35454178px" font-variant="normal" font-style="normal" font-family="Museo Sans 500" fill="#cd3b3b">

		<path d="m101.45,28.832,3.896,0,0-10.271,6.2573,0c2.585-0.0377,4.6757-0.84774,6.272-2.4301,1.5963-1.5823,2.4178-3.7107,2.4645-6.3852-0.0468-2.6695-0.86827-4.7782-2.4645-6.3262-1.5963-1.5479-3.687-2.3383-6.272-2.3711h-10.153zm3.896-13.656,0-10.744,5.667,0c1.6692,0.012323,2.9745,0.47965,3.9157,1.402,0.9412,0.92238,1.42,2.226,1.4364,3.9108-0.0156,1.6898-0.49605,3.0131-1.4414,3.9698-0.94533,0.95681-2.262,1.4438-3.9502,1.461z"/>

		<path d="m124.57,28.832,3.8173,0,0-8.1463c-0.002-0.61162,0.032-1.2183,0.1033-1.8201,0.0713-0.60178,0.19431-1.1888,0.36895-1.7611,0.47634-1.4864,1.2159-2.6359,2.2186-3.4484,1.0027-0.81248,2.1259-1.2241,3.3697-1.2347,0.30416,0.0049,0.5616,0.02461,0.77232,0.05903,0.2107,0.03445,0.32056,0.05413,0.32959,0.05903v-3.778c-0.009-0.00326-0.10906-0.016377-0.30007-0.039354-0.19105-0.022937-0.41897-0.036055-0.68378-0.039354-1.5488,0.034455-2.8688,0.53622-3.96,1.5053-1.0913,0.96911-1.8701,2.1989-2.3366,3.6894h-0.0787c0.003-0.01064,0.0164-0.15658,0.0393-0.43782,0.023-0.2812,0.0361-0.63375,0.0394-1.0576v-3.4632h-3.6993z"/>

		<path d="m137.87,18.836c0.0762,3.0877,1.124,5.5899,3.1434,7.5068,2.0193,1.9169,4.5528,2.904,7.6002,2.9614,3.0475-0.05739,5.5809-1.0445,7.6002-2.9614s3.0671-4.4191,3.1434-7.5068c-0.0763-3.0671-1.1241-5.5514-3.1434-7.4527-2.0194-1.9013-4.5528-2.8802-7.6002-2.9368-3.0475,0.056592-5.5809,1.0355-7.6002,2.9368-2.0194,1.9013-3.0672,4.3855-3.1434,7.4527zm3.896,0c0.0516-2.103,0.72559-3.8001,2.0218-5.0914s2.9048-1.9554,4.8258-1.9923c1.9382,0.03691,3.5517,0.70101,4.8406,1.9923,1.2888,1.2913,1.9578,2.9885,2.0071,5.0914-0.0492,2.1235-0.71823,3.8387-2.0071,5.1455-1.2889,1.3069-2.9024,1.9792-4.8406,2.0169-1.921-0.03771-3.5296-0.71001-4.8258-2.0169s-1.9702-3.0221-2.0218-5.1455z"/>

		<path d="m162.23,26.392c0.01,0.12134,0.65918,0.60671,1.948,1.4561s3.1582,1.3348,5.608,1.4561c2.2112-0.03443,3.9575-0.58539,5.239-1.6529,1.2814-1.0675,1.9357-2.4449,1.9628-4.1322-0.12634-2.1054-1.0106-3.614-2.6528-4.5257-1.6422-0.91169-3.2844-1.6594-4.9265-2.2432-1.6422-0.58374-2.5264-1.4364-2.6528-2.558,0.0328-0.85922,0.37058-1.4823,1.0134-1.8693,0.64277-0.38696,1.3938-0.57718,2.253-0.57063,1.5824,0.07381,2.7958,0.36896,3.6402,0.88546,0.84446,0.51654,1.2708,0.81169,1.279,0.88547l1.5348-2.8728c0.006-0.09181-0.51736-0.45911-1.5692-1.1019-1.0519-0.64276-2.6671-1.0101-4.8455-1.1019-2.039,0.00986-3.7362,0.50178-5.0914,1.4758-1.3553,0.97403-2.0587,2.3711-2.1104,4.1912,0.12632,2.0926,1.0106,3.5963,2.6528,4.5111,1.6422,0.91487,3.2844,1.6723,4.9265,2.2723,1.6422,0.60004,2.5264,1.4741,2.6528,2.6221-0.0344,0.80922-0.37879,1.4241-1.033,1.8447-0.65427,0.4206-1.4118,0.63213-2.2727,0.63458-1.7529-0.09674-3.1368-0.48372-4.1518-1.1609-1.015-0.67721-1.5332-1.0642-1.5545-1.1609z"/>

	</g>

</svg>