<?xml version="1.0" encoding="UTF-8"?>
<svg xmlns="http://www.w3.org/2000/svg" width="240" height="107" viewBox="0 0 240 107" fill="none">
  <path fill-rule="evenodd" clip-rule="evenodd" d="M93.2945 49.6567C93.157 42.9636 88.2576 37.1169 81.6899 35.8133C72.7287 34.0346 65.1055 40.8046 64.884 49.7925C64.6821 57.9267 71.4713 64.8556 79.6036 64.5467C87.4413 64.2502 93.4624 57.8285 93.2945 49.6567ZM93.2981 78.508V72.3541H93.0927C90.6313 77.3793 83.86 80.458 76.3689 80.458C59.5434 80.458 47.8477 67.2253 47.8477 49.9907C47.8477 33.1685 60.056 19.6287 76.3689 19.6287C83.3456 19.6287 89.8097 22.3984 93.0927 27.629H93.2981V21.577H110.329V78.508H93.2981ZM110.361 9.61094C110.361 14.3272 106.536 18.1506 101.819 18.1506C97.102 18.1506 93.2779 14.3272 93.2779 9.61094C93.2779 4.89467 97.102 1.07129 101.819 1.07129C106.536 1.07129 110.361 4.89467 110.361 9.61094Z" fill="#00C3BF"></path>
  <path fill-rule="evenodd" clip-rule="evenodd" d="M27.9068 37.5796C27.805 34.2973 25.4437 33.2723 22.6734 33.2723C19.8013 33.2723 17.749 34.9134 17.749 37.0671C17.749 40.144 20.5193 41.6833 28.4195 43.7334C41.9621 47.3246 46.3739 52.7606 46.3739 61.0699C46.3739 72.9686 36.1142 80.4582 23.1878 80.4582C10.3633 80.4582 1.23066 73.1739 0 61.5824H16.9291C17.4418 65.1736 20.0067 66.8147 23.3932 66.8147C26.3672 66.8147 29.3429 65.07 29.3429 62.4038C29.3429 59.2234 27.3942 57.5822 18.8778 54.916C4.51361 50.5051 0.718033 44.862 0.718033 38.1957C0.718033 26.9113 11.2849 19.6288 22.777 19.6288C35.0889 19.6288 43.8089 26.3988 44.6306 37.5796H27.9068ZM159.233 49.0545C158.858 43.5186 154.323 37.5219 148.955 36.1093C139.757 33.6896 131.676 40.7792 131.676 49.7867C131.676 57.787 137.113 64.4552 145.32 64.4552C154.048 64.4552 159.831 57.8978 159.233 49.0545ZM159.172 71.8412C156.607 77.2771 150.247 80.3558 143.27 80.3558C126.648 80.3558 114.645 67.5321 114.645 50.401C114.645 32.9628 126.853 19.7319 143.27 19.7319C150.656 19.7319 156.3 22.5016 159.07 26.9125H159.276V21.5784H176.307V72.4555C176.307 80.1487 175.28 85.9972 173.229 89.8938C169.124 97.7923 159.736 105 145.476 105C137.106 105 129.972 102.937 124.94 98.062L133.53 85.5704C136.833 88.5848 141.116 89.483 145.32 89.483C153.94 89.483 159.172 83.8417 159.172 73.4823V71.8412ZM222.969 43.7343C221.637 37.8876 216.505 33.9892 209.939 33.9892C203.784 33.9892 198.449 37.6823 197.115 43.7343H222.969ZM196.909 55.2223C197.833 61.6851 203.27 65.9942 210.246 65.9942C214.864 65.9942 217.839 64.2495 220.61 60.66H238.051C232.614 73.0713 222.251 80.3555 210.246 80.3555C193.832 80.3555 180.084 67.1228 180.084 50.1971C180.084 33.7839 193.215 19.6279 209.939 19.6279C226.97 19.6279 240 33.066 240 50.7096C240 52.3507 239.898 53.6847 239.591 55.2223C239.591 55.2223 239.591 55.2223 239.589 55.2223H196.909Z" fill="black"></path>
</svg>
