<svg xmlns="http://www.w3.org/2000/svg" xml:space="preserve" viewBox="0 0 121 20.7"><path fill="currentColor" d="M0 15.6c0 3.4 1.2 5.3 4.2 5.3 1.5 0 2.7-.5 3.4-1.1L6.9 18c-.5.4-1.2.7-2.1.7-1.7 0-2.4-1.2-2.4-3.3V9.6h4.9V7.4H2.4V3.7H0zm10.5 5.1h2.4V7.4h-2.4zm-.3-18.3c0 1 .7 1.5 1.5 1.5.7 0 1.4-.6 1.4-1.5S12.4 1 11.7 1c-.8 0-1.5.5-1.5 1.4m17.1 14.7c-.9 1-2.2 1.7-3.8 1.7-2.6 0-4.8-1.8-4.8-4.7 0-2.8 2.2-4.7 4.6-4.7 1.4 0 2.7.4 3.8 1.4L28.2 9C27 7.8 25.1 7.3 23 7.3c-3.9 0-6.7 3.1-6.7 7 0 4.2 2.9 7 7.1 7 2.1 0 4-.8 5.1-2.2zm15.1-9.7h-3l-5.5 6.4 6 7h3.2l-6.3-7.2zM31 20.7h2.4V0H31zm24-3.3c-.9.8-2.4 1.4-4.1 1.4-2.6 0-4.4-1.5-4.6-4h10.2c.1-.4.2-1 .2-1.6 0-3.7-2.8-6.1-6.2-6.1-4.4 0-6.8 3.1-6.8 7 0 4.2 2.8 7 7.1 7 1.8 0 3.7-.6 5-1.7zm-4.7-8.1c2.3 0 3.7 1.4 3.8 3.5H46c.4-2 1.9-3.5 4.3-3.5m9.3 11.4H62v-9.4c.5-1 1.2-1.9 2.8-1.9.8 0 1.1.1 1.8.5l.8-2.2c-.5-.3-1-.5-2.1-.5-1.7 0-2.6.8-3.3 1.8V7.4h-2.4zM91.5 14c0 4 2.8 7 7.1 7s7.1-3 7.1-7-2.8-7-7.1-7c-4.3.1-7.1 3-7.1 7m2.5 0c0-2.8 2-4.7 4.6-4.7 2.7 0 4.6 1.9 4.6 4.7s-1.9 4.7-4.6 4.7c-2.7.1-4.6-1.8-4.6-4.7m14.8 6.7h2.4v-9.6c.9-1 2.3-1.7 3.7-1.7 2.5 0 3.7 1.3 3.7 4.1v7.2h2.4V13c0-4.2-2.1-5.8-5.5-5.8-1.7 0-3.4.9-4.4 1.8V7.4h-2.4z"></path><path fill="#00e496" d="M78.5 6.8h1.2c.2 0 .4.2.4.4v13.4c0 .2-.2.4-.4.4h-1.2c-.2 0-.4-.2-.4-.4V7.2c0-.2.1-.4.4-.4m-3.7 5.3H76c.2 0 .4.2.4.4v8.2c0 .2-.2.4-.4.4h-1.2c-.2 0-.4-.2-.4-.4v-8.2c0-.2.2-.4.4-.4m7.3 0h1.2c.2 0 .4.2.4.4v8.2c0 .2-.2.4-.4.4h-1.2c-.2 0-.4-.2-.4-.4v-8.2c0-.2.2-.4.4-.4m3.7 4.9H87c.2 0 .4.2.4.4v3.2c0 .2-.2.4-.4.4h-1.2c-.2 0-.4-.2-.4-.4v-3.2c0-.3.2-.4.4-.4m-14.6 0h1.2c.2 0 .4.2.4.4v3.2c0 .2-.2.4-.4.4h-1.2c-.2 0-.4-.2-.4-.4v-3.2c0-.3.2-.4.4-.4"></path></svg>